<svg xmlns="http://www.w3.org/2000/svg" xmlns:xlink="http://www.w3.org/1999/xlink" contentStyleType="text/css" data-diagram-type="ACTIVITY" height="526px" preserveAspectRatio="none" style="width:376px;height:526px;background:#FFFFFF;" version="1.1" viewBox="0 0 376 526" width="376px" zoomAndPan="magnify"><title>Creating a Spec</title><defs/><g><g class="title" data-source-line="1"><text fill="#000000" font-family="sans-serif" font-size="14" font-weight="bold" lengthAdjust="spacing" textLength="124.6943" x="124.3057" y="32.9951">Creating a Spec</text></g><ellipse cx="180.5562" cy="57.2969" fill="#222222" rx="10" ry="10" style="stroke:#222222;stroke-width:1;"/><rect fill="#F1F1F1" height="33.9688" rx="12.5" ry="12.5" style="stroke:#181818;stroke-width:0.5;" width="236.1934" x="62.4595" y="87.2969"/><text fill="#000000" font-family="sans-serif" font-size="12" lengthAdjust="spacing" textLength="216.1934" x="72.4595" y="108.4355">Create a new template with a name</text><polygon fill="#F1F1F1" points="133.8035,141.2656,227.3088,141.2656,239.3088,153.2656,227.3088,165.2656,133.8035,165.2656,121.8035,153.2656,133.8035,141.2656" style="stroke:#181818;stroke-width:0.5;"/><text fill="#000000" font-family="sans-serif" font-size="11" lengthAdjust="spacing" textLength="93.5054" x="133.8035" y="157.0737">Template exists?</text><text fill="#000000" font-family="sans-serif" font-size="11" lengthAdjust="spacing" textLength="19.0083" x="102.7952" y="150.6714">yes</text><text fill="#000000" font-family="sans-serif" font-size="11" lengthAdjust="spacing" textLength="13.7017" x="239.3088" y="150.6714">no</text><rect fill="#F1F1F1" height="47.9375" rx="12.5" ry="12.5" style="stroke:#181818;stroke-width:0.5;" width="135.4941" x="11" y="175.2656"/><text fill="#000000" font-family="sans-serif" font-size="12" lengthAdjust="spacing" textLength="115.4941" x="21" y="196.4043">Prompt user if they</text><text fill="#000000" font-family="sans-serif" font-size="12" lengthAdjust="spacing" textLength="106.084" x="21" y="210.373">want to overwrite</text><polygon fill="#F1F1F1" points="48.771,243.2031,108.7231,243.2031,120.7231,255.2031,108.7231,267.2031,48.771,267.2031,36.771,255.2031,48.771,243.2031" style="stroke:#181818;stroke-width:0.5;"/><text fill="#000000" font-family="sans-serif" font-size="11" lengthAdjust="spacing" textLength="19.0083" x="82.7471" y="277.4136">yes</text><text fill="#000000" font-family="sans-serif" font-size="11" lengthAdjust="spacing" textLength="59.9521" x="48.771" y="259.0112">Overwrite?</text><text fill="#000000" font-family="sans-serif" font-size="11" lengthAdjust="spacing" textLength="13.7017" x="120.7231" y="252.6089">no</text><ellipse cx="156.4248" cy="255.2031" fill="none" rx="11" ry="11" style="stroke:#222222;stroke-width:1;"/><ellipse cx="156.4248" cy="255.2031" fill="#222222" rx="6" ry="6" style="stroke:#222222;stroke-width:1;"/><rect fill="#F1F1F1" height="47.9375" rx="12.5" ry="12.5" style="stroke:#181818;stroke-width:0.5;" width="165.8809" x="199.4248" y="175.2656"/><text fill="#000000" font-family="sans-serif" font-size="12" lengthAdjust="spacing" textLength="145.8809" x="209.4248" y="196.4043">Write example template</text><text fill="#000000" font-family="sans-serif" font-size="12" lengthAdjust="spacing" textLength="34.1367" x="209.4248" y="210.373">to file</text><polygon fill="#F1F1F1" points="180.5562,288.9136,192.5562,300.9136,180.5562,312.9136,168.5562,300.9136,180.5562,288.9136" style="stroke:#181818;stroke-width:0.5;"/><rect fill="#F1F1F1" height="47.9375" rx="12.5" ry="12.5" style="stroke:#181818;stroke-width:0.5;" width="195.1602" x="82.9761" y="381.3159"/><text fill="#000000" font-family="sans-serif" font-size="12" lengthAdjust="spacing" textLength="154.6113" x="92.9761" y="402.4546">Spawn $EDITOR and pass</text><text fill="#000000" font-family="sans-serif" font-size="12" lengthAdjust="spacing" textLength="175.1602" x="92.9761" y="416.4233">template file as an argument</text><polygon fill="#F1F1F1" points="138.2507,332.9136,222.8616,332.9136,234.8616,344.9136,222.8616,356.9136,138.2507,356.9136,126.2507,344.9136,138.2507,332.9136" style="stroke:#181818;stroke-width:0.5;"/><text fill="#000000" font-family="sans-serif" font-size="11" lengthAdjust="spacing" textLength="19.0083" x="184.5562" y="367.124">yes</text><text fill="#000000" font-family="sans-serif" font-size="11" lengthAdjust="spacing" textLength="84.6108" x="138.2507" y="348.7217">Open in editor?</text><text fill="#000000" font-family="sans-serif" font-size="11" lengthAdjust="spacing" textLength="13.7017" x="234.8616" y="342.3193">no</text><polygon fill="#F1F1F1" points="180.5562,449.2534,192.5562,461.2534,180.5562,473.2534,168.5562,461.2534,180.5562,449.2534" style="stroke:#181818;stroke-width:0.5;"/><ellipse cx="180.5562" cy="504.2534" fill="none" rx="11" ry="11" style="stroke:#222222;stroke-width:1;"/><ellipse cx="180.5562" cy="504.2534" fill="#222222" rx="6" ry="6" style="stroke:#222222;stroke-width:1;"/><line style="stroke:#181818;stroke-width:1;" x1="180.5562" x2="180.5562" y1="67.2969" y2="87.2969"/><polygon fill="#181818" points="176.5562,77.2969,180.5562,87.2969,184.5562,77.2969,180.5562,81.2969" style="stroke:#181818;stroke-width:1;"/><line style="stroke:#181818;stroke-width:1;" x1="78.7471" x2="78.7471" y1="267.2031" y2="300.9136"/><line style="stroke:#181818;stroke-width:1;" x1="78.7471" x2="168.5562" y1="300.9136" y2="300.9136"/><polygon fill="#181818" points="158.5562,296.9136,168.5562,300.9136,158.5562,304.9136,162.5562,300.9136" style="stroke:#181818;stroke-width:1;"/><line style="stroke:#181818;stroke-width:1;" x1="120.7231" x2="145.4248" y1="255.2031" y2="255.2031"/><polygon fill="#181818" points="135.4248,251.2031,145.4248,255.2031,135.4248,259.2031,139.4248,255.2031" style="stroke:#181818;stroke-width:1;"/><line style="stroke:#181818;stroke-width:1;" x1="78.7471" x2="78.7471" y1="223.2031" y2="243.2031"/><polygon fill="#181818" points="74.7471,233.2031,78.7471,243.2031,82.7471,233.2031,78.7471,237.2031" style="stroke:#181818;stroke-width:1;"/><line style="stroke:#181818;stroke-width:1;" x1="121.8035" x2="78.7471" y1="153.2656" y2="153.2656"/><line style="stroke:#181818;stroke-width:1;" x1="78.7471" x2="78.7471" y1="153.2656" y2="175.2656"/><polygon fill="#181818" points="74.7471,165.2656,78.7471,175.2656,82.7471,165.2656,78.7471,169.2656" style="stroke:#181818;stroke-width:1;"/><line style="stroke:#181818;stroke-width:1;" x1="239.3088" x2="282.3652" y1="153.2656" y2="153.2656"/><line style="stroke:#181818;stroke-width:1;" x1="282.3652" x2="282.3652" y1="153.2656" y2="175.2656"/><polygon fill="#181818" points="278.3652,165.2656,282.3652,175.2656,286.3652,165.2656,282.3652,169.2656" style="stroke:#181818;stroke-width:1;"/><line style="stroke:#181818;stroke-width:1;" x1="282.3652" x2="282.3652" y1="223.2031" y2="300.9136"/><line style="stroke:#181818;stroke-width:1;" x1="282.3652" x2="192.5562" y1="300.9136" y2="300.9136"/><polygon fill="#181818" points="202.5562,296.9136,192.5562,300.9136,202.5562,304.9136,198.5562,300.9136" style="stroke:#181818;stroke-width:1;"/><line style="stroke:#181818;stroke-width:1;" x1="180.5562" x2="180.5562" y1="121.2656" y2="141.2656"/><polygon fill="#181818" points="176.5562,131.2656,180.5562,141.2656,184.5562,131.2656,180.5562,135.2656" style="stroke:#181818;stroke-width:1;"/><line style="stroke:#181818;stroke-width:1;" x1="180.5562" x2="180.5562" y1="356.9136" y2="381.3159"/><polygon fill="#181818" points="176.5562,371.3159,180.5562,381.3159,184.5562,371.3159,180.5562,375.3159" style="stroke:#181818;stroke-width:1;"/><line style="stroke:#181818;stroke-width:1;" x1="234.8616" x2="288.1362" y1="344.9136" y2="344.9136"/><polygon fill="#181818" points="284.1362,395.2847,288.1362,405.2847,292.1362,395.2847,288.1362,399.2847" style="stroke:#181818;stroke-width:1;"/><line style="stroke:#181818;stroke-width:1;" x1="288.1362" x2="288.1362" y1="344.9136" y2="461.2534"/><line style="stroke:#181818;stroke-width:1;" x1="288.1362" x2="192.5562" y1="461.2534" y2="461.2534"/><polygon fill="#181818" points="202.5562,457.2534,192.5562,461.2534,202.5562,465.2534,198.5562,461.2534" style="stroke:#181818;stroke-width:1;"/><line style="stroke:#181818;stroke-width:1;" x1="180.5562" x2="180.5562" y1="429.2534" y2="449.2534"/><polygon fill="#181818" points="176.5562,439.2534,180.5562,449.2534,184.5562,439.2534,180.5562,443.2534" style="stroke:#181818;stroke-width:1;"/><line style="stroke:#181818;stroke-width:1;" x1="180.5562" x2="180.5562" y1="312.9136" y2="332.9136"/><polygon fill="#181818" points="176.5562,322.9136,180.5562,332.9136,184.5562,322.9136,180.5562,326.9136" style="stroke:#181818;stroke-width:1;"/><line style="stroke:#181818;stroke-width:1;" x1="180.5562" x2="180.5562" y1="473.2534" y2="493.2534"/><polygon fill="#181818" points="176.5562,483.2534,180.5562,493.2534,184.5562,483.2534,180.5562,487.2534" style="stroke:#181818;stroke-width:1;"/><!--SRC=[RP0zJWD138Lxdy85nUOAco85K505aKZK5kjDBErwHcE78RTdlFa12TpPt_Yzvt7nYV6nCBde0GbtcJy0m9oAGxy0RcFbYivpdgAjuiUOqSnh01cnszyGVucvRLReHrRipcmhm5RzQqbpTZmP5smR3Pzn8PNKqHEcJowrY8Tap4DsUvlz5UJ963jDboxAFEKBqa56W9yNqB-7I0j7BIRV3u5cEyeKZjUTnJGt8r7aGJoLVqxPPQgA3yzFB_lj6v8EcCbiOVSl2baaQnIf74upgwz_9xhwHUPl]--></g></svg>