<svg xmlns="http://www.w3.org/2000/svg" xmlns:xlink="http://www.w3.org/1999/xlink" contentStyleType="text/css" data-diagram-type="ACTIVITY" height="869px" preserveAspectRatio="none" style="width:516px;height:869px;background:#FFFFFF;" version="1.1" viewBox="0 0 516 869" width="516px" zoomAndPan="magnify"><title>Creating Templates</title><defs/><g><g class="title" data-source-line="1"><text fill="#000000" font-family="sans-serif" font-size="14" font-weight="bold" lengthAdjust="spacing" textLength="154.8955" x="179.1147" y="32.9951">Creating Templates</text></g><ellipse cx="267.7275" cy="57.2969" fill="#222222" rx="10" ry="10" style="stroke:#222222;stroke-width:1;"/><rect fill="#F1F1F1" height="33.9688" rx="12.5" ry="12.5" style="stroke:#181818;stroke-width:0.5;" width="240.0078" x="147.7236" y="87.2969"/><text fill="#000000" font-family="sans-serif" font-size="12" lengthAdjust="spacing" textLength="220.0078" x="157.7236" y="108.4355">Create a new template, with a name</text><polygon fill="#F1F1F1" points="163.3376,141.2656,372.1174,141.2656,384.1174,153.2656,372.1174,165.2656,163.3376,165.2656,151.3376,153.2656,163.3376,141.2656" style="stroke:#181818;stroke-width:0.5;"/><text fill="#000000" font-family="sans-serif" font-size="11" lengthAdjust="spacing" textLength="208.7798" x="163.3376" y="157.0737">$EDITOR environment variable is set?</text><text fill="#000000" font-family="sans-serif" font-size="11" lengthAdjust="spacing" textLength="19.0083" x="132.3293" y="150.6714">yes</text><text fill="#000000" font-family="sans-serif" font-size="11" lengthAdjust="spacing" textLength="13.7017" x="384.1174" y="150.6714">no</text><rect fill="#F1F1F1" height="33.9688" rx="12.5" ry="12.5" style="stroke:#181818;stroke-width:0.5;" width="175.8828" x="45.7549" y="223.668"/><text fill="#000000" font-family="sans-serif" font-size="12" lengthAdjust="spacing" textLength="155.8828" x="55.7549" y="244.8066">Create template directory</text><rect fill="#F1F1F1" height="33.9688" rx="12.5" ry="12.5" style="stroke:#181818;stroke-width:0.5;" width="139.5078" x="63.9424" y="326.0391"/><text fill="#000000" font-family="sans-serif" font-size="12" lengthAdjust="spacing" textLength="119.5078" x="73.9424" y="347.1777">Report error to user</text><ellipse cx="133.6963" cy="399.5234" fill="none" rx="11" ry="11" style="stroke:#222222;stroke-width:1;"/><ellipse cx="133.6963" cy="399.5234" fill="#222222" rx="6" ry="6" style="stroke:#222222;stroke-width:1;"/><polygon fill="#F1F1F1" points="117.1533,277.6367,150.2393,277.6367,162.2393,289.6367,150.2393,301.6367,117.1533,301.6367,105.1533,289.6367,117.1533,277.6367" style="stroke:#181818;stroke-width:0.5;"/><text fill="#000000" font-family="sans-serif" font-size="11" lengthAdjust="spacing" textLength="19.0083" x="137.6963" y="311.8472">yes</text><text fill="#000000" font-family="sans-serif" font-size="11" lengthAdjust="spacing" textLength="33.0859" x="117.1533" y="293.4448">Error?</text><text fill="#000000" font-family="sans-serif" font-size="11" lengthAdjust="spacing" textLength="13.7017" x="162.2393" y="287.0425">no</text><polygon fill="#F1F1F1" points="60.4695,175.2656,206.9231,175.2656,218.9231,187.2656,206.9231,199.2656,60.4695,199.2656,48.4695,187.2656,60.4695,175.2656" style="stroke:#181818;stroke-width:0.5;"/><text fill="#000000" font-family="sans-serif" font-size="11" lengthAdjust="spacing" textLength="13.7017" x="137.6963" y="209.4761">no</text><text fill="#000000" font-family="sans-serif" font-size="11" lengthAdjust="spacing" textLength="146.4536" x="60.4695" y="191.0737">Template directory exists?</text><text fill="#000000" font-family="sans-serif" font-size="11" lengthAdjust="spacing" textLength="19.0083" x="218.9231" y="184.6714">yes</text><polygon fill="#F1F1F1" points="133.6963,452.5234,145.6963,464.5234,133.6963,476.5234,121.6963,464.5234,133.6963,452.5234" style="stroke:#181818;stroke-width:0.5;"/><rect fill="#F1F1F1" height="33.9688" rx="12.5" ry="12.5" style="stroke:#181818;stroke-width:0.5;" width="245.3926" x="11" y="544.9258"/><text fill="#000000" font-family="sans-serif" font-size="12" lengthAdjust="spacing" textLength="225.3926" x="21" y="566.0645">Prompt user if they want to overwrite</text><polygon fill="#F1F1F1" points="103.7202,598.8945,163.6724,598.8945,175.6724,610.8945,163.6724,622.8945,103.7202,622.8945,91.7202,610.8945,103.7202,598.8945" style="stroke:#181818;stroke-width:0.5;"/><text fill="#000000" font-family="sans-serif" font-size="11" lengthAdjust="spacing" textLength="19.0083" x="137.6963" y="633.105">yes</text><text fill="#000000" font-family="sans-serif" font-size="11" lengthAdjust="spacing" textLength="59.9521" x="103.7202" y="614.7026">Overwrite?</text><text fill="#000000" font-family="sans-serif" font-size="11" lengthAdjust="spacing" textLength="13.7017" x="175.6724" y="608.3003">no</text><ellipse cx="211.374" cy="610.8945" fill="none" rx="11" ry="11" style="stroke:#222222;stroke-width:1;"/><ellipse cx="211.374" cy="610.8945" fill="#222222" rx="6" ry="6" style="stroke:#222222;stroke-width:1;"/><polygon fill="#F1F1F1" points="86.9436,496.5234,180.449,496.5234,192.449,508.5234,180.449,520.5234,86.9436,520.5234,74.9436,508.5234,86.9436,496.5234" style="stroke:#181818;stroke-width:0.5;"/><text fill="#000000" font-family="sans-serif" font-size="11" lengthAdjust="spacing" textLength="19.0083" x="137.6963" y="530.7339">yes</text><text fill="#000000" font-family="sans-serif" font-size="11" lengthAdjust="spacing" textLength="93.5054" x="86.9436" y="512.3315">Template exists?</text><text fill="#000000" font-family="sans-serif" font-size="11" lengthAdjust="spacing" textLength="13.7017" x="192.449" y="505.9292">no</text><polygon fill="#F1F1F1" points="133.6963,654.605,145.6963,666.605,133.6963,678.605,121.6963,666.605,133.6963,654.605" style="stroke:#181818;stroke-width:0.5;"/><rect fill="#F1F1F1" height="33.9688" rx="12.5" ry="12.5" style="stroke:#181818;stroke-width:0.5;" width="235.0918" x="16.1504" y="698.605"/><text fill="#000000" font-family="sans-serif" font-size="12" lengthAdjust="spacing" textLength="215.0918" x="26.1504" y="719.7437">Generate scaffold template for user</text><rect fill="#F1F1F1" height="33.9688" rx="12.5" ry="12.5" style="stroke:#181818;stroke-width:0.5;" width="181.7129" x="42.8398" y="752.5737"/><text fill="#000000" font-family="sans-serif" font-size="12" lengthAdjust="spacing" textLength="161.7129" x="52.8398" y="773.7124">Open template in $EDITOR</text><rect fill="#F1F1F1" height="47.9375" rx="12.5" ry="12.5" style="stroke:#181818;stroke-width:0.5;" width="206.7324" x="298.3926" y="175.2656"/><text fill="#000000" font-family="sans-serif" font-size="12" lengthAdjust="spacing" textLength="186.7324" x="308.3926" y="196.4043">Instruct user to set $EDITOR to</text><text fill="#000000" font-family="sans-serif" font-size="12" lengthAdjust="spacing" textLength="155.0215" x="308.3926" y="210.373">their preferred text editor</text><polygon fill="#F1F1F1" points="267.7275,792.5425,279.7275,804.5425,267.7275,816.5425,255.7275,804.5425,267.7275,792.5425" style="stroke:#181818;stroke-width:0.5;"/><ellipse cx="267.7275" cy="847.5425" fill="none" rx="11" ry="11" style="stroke:#222222;stroke-width:1;"/><ellipse cx="267.7275" cy="847.5425" fill="#222222" rx="6" ry="6" style="stroke:#222222;stroke-width:1;"/><line style="stroke:#181818;stroke-width:1;" x1="267.7275" x2="267.7275" y1="67.2969" y2="87.2969"/><polygon fill="#181818" points="263.7275,77.2969,267.7275,87.2969,271.7275,77.2969,267.7275,81.2969" style="stroke:#181818;stroke-width:1;"/><line style="stroke:#181818;stroke-width:1;" x1="133.6963" x2="133.6963" y1="360.0078" y2="388.5234"/><polygon fill="#181818" points="129.6963,378.5234,133.6963,388.5234,137.6963,378.5234,133.6963,382.5234" style="stroke:#181818;stroke-width:1;"/><line style="stroke:#181818;stroke-width:1;" x1="133.6963" x2="133.6963" y1="301.6367" y2="326.0391"/><polygon fill="#181818" points="129.6963,316.0391,133.6963,326.0391,137.6963,316.0391,133.6963,320.0391" style="stroke:#181818;stroke-width:1;"/><line style="stroke:#181818;stroke-width:1;" x1="162.2393" x2="213.4502" y1="289.6367" y2="289.6367"/><polygon fill="#181818" points="209.4502,358.5234,213.4502,368.5234,217.4502,358.5234,213.4502,362.5234" style="stroke:#181818;stroke-width:1;"/><line style="stroke:#181818;stroke-width:1;" x1="213.4502" x2="213.4502" y1="289.6367" y2="432.5234"/><line style="stroke:#181818;stroke-width:1;" x1="213.4502" x2="133.6963" y1="432.5234" y2="432.5234"/><line style="stroke:#181818;stroke-width:1;" x1="133.6963" x2="133.6963" y1="432.5234" y2="452.5234"/><polygon fill="#181818" points="129.6963,442.5234,133.6963,452.5234,137.6963,442.5234,133.6963,446.5234" style="stroke:#181818;stroke-width:1;"/><line style="stroke:#181818;stroke-width:1;" x1="133.6963" x2="133.6963" y1="257.6367" y2="277.6367"/><polygon fill="#181818" points="129.6963,267.6367,133.6963,277.6367,137.6963,267.6367,133.6963,271.6367" style="stroke:#181818;stroke-width:1;"/><line style="stroke:#181818;stroke-width:1;" x1="133.6963" x2="133.6963" y1="199.2656" y2="223.668"/><polygon fill="#181818" points="129.6963,213.668,133.6963,223.668,137.6963,213.668,133.6963,217.668" style="stroke:#181818;stroke-width:1;"/><line style="stroke:#181818;stroke-width:1;" x1="218.9231" x2="235.4502" y1="187.2656" y2="187.2656"/><polygon fill="#181818" points="231.4502,318.0391,235.4502,328.0391,239.4502,318.0391,235.4502,322.0391" style="stroke:#181818;stroke-width:1;"/><line style="stroke:#181818;stroke-width:1;" x1="235.4502" x2="235.4502" y1="187.2656" y2="464.5234"/><line style="stroke:#181818;stroke-width:1;" x1="235.4502" x2="145.6963" y1="464.5234" y2="464.5234"/><polygon fill="#181818" points="155.6963,460.5234,145.6963,464.5234,155.6963,468.5234,151.6963,464.5234" style="stroke:#181818;stroke-width:1;"/><line style="stroke:#181818;stroke-width:1;" x1="133.6963" x2="133.6963" y1="622.8945" y2="654.605"/><polygon fill="#181818" points="129.6963,644.605,133.6963,654.605,137.6963,644.605,133.6963,648.605" style="stroke:#181818;stroke-width:1;"/><line style="stroke:#181818;stroke-width:1;" x1="175.6724" x2="200.374" y1="610.8945" y2="610.8945"/><polygon fill="#181818" points="190.374,606.8945,200.374,610.8945,190.374,614.8945,194.374,610.8945" style="stroke:#181818;stroke-width:1;"/><line style="stroke:#181818;stroke-width:1;" x1="133.6963" x2="133.6963" y1="578.8945" y2="598.8945"/><polygon fill="#181818" points="129.6963,588.8945,133.6963,598.8945,137.6963,588.8945,133.6963,592.8945" style="stroke:#181818;stroke-width:1;"/><line style="stroke:#181818;stroke-width:1;" x1="133.6963" x2="133.6963" y1="520.5234" y2="544.9258"/><polygon fill="#181818" points="129.6963,534.9258,133.6963,544.9258,137.6963,534.9258,133.6963,538.9258" style="stroke:#181818;stroke-width:1;"/><line style="stroke:#181818;stroke-width:1;" x1="192.449" x2="266.3926" y1="508.5234" y2="508.5234"/><polygon fill="#181818" points="262.3926,590.8125,266.3926,600.8125,270.3926,590.8125,266.3926,594.8125" style="stroke:#181818;stroke-width:1;"/><line style="stroke:#181818;stroke-width:1;" x1="266.3926" x2="266.3926" y1="508.5234" y2="666.605"/><line style="stroke:#181818;stroke-width:1;" x1="266.3926" x2="145.6963" y1="666.605" y2="666.605"/><polygon fill="#181818" points="155.6963,662.605,145.6963,666.605,155.6963,670.605,151.6963,666.605" style="stroke:#181818;stroke-width:1;"/><line style="stroke:#181818;stroke-width:1;" x1="133.6963" x2="133.6963" y1="476.5234" y2="496.5234"/><polygon fill="#181818" points="129.6963,486.5234,133.6963,496.5234,137.6963,486.5234,133.6963,490.5234" style="stroke:#181818;stroke-width:1;"/><line style="stroke:#181818;stroke-width:1;" x1="133.6963" x2="133.6963" y1="678.605" y2="698.605"/><polygon fill="#181818" points="129.6963,688.605,133.6963,698.605,137.6963,688.605,133.6963,692.605" style="stroke:#181818;stroke-width:1;"/><line style="stroke:#181818;stroke-width:1;" x1="133.6963" x2="133.6963" y1="732.5737" y2="752.5737"/><polygon fill="#181818" points="129.6963,742.5737,133.6963,752.5737,137.6963,742.5737,133.6963,746.5737" style="stroke:#181818;stroke-width:1;"/><line style="stroke:#181818;stroke-width:1;" x1="151.3376" x2="133.6963" y1="153.2656" y2="153.2656"/><line style="stroke:#181818;stroke-width:1;" x1="133.6963" x2="133.6963" y1="153.2656" y2="175.2656"/><polygon fill="#181818" points="129.6963,165.2656,133.6963,175.2656,137.6963,165.2656,133.6963,169.2656" style="stroke:#181818;stroke-width:1;"/><line style="stroke:#181818;stroke-width:1;" x1="384.1174" x2="401.7588" y1="153.2656" y2="153.2656"/><line style="stroke:#181818;stroke-width:1;" x1="401.7588" x2="401.7588" y1="153.2656" y2="175.2656"/><polygon fill="#181818" points="397.7588,165.2656,401.7588,175.2656,405.7588,165.2656,401.7588,169.2656" style="stroke:#181818;stroke-width:1;"/><line style="stroke:#181818;stroke-width:1;" x1="133.6963" x2="133.6963" y1="786.5425" y2="804.5425"/><line style="stroke:#181818;stroke-width:1;" x1="133.6963" x2="255.7275" y1="804.5425" y2="804.5425"/><polygon fill="#181818" points="245.7275,800.5425,255.7275,804.5425,245.7275,808.5425,249.7275,804.5425" style="stroke:#181818;stroke-width:1;"/><line style="stroke:#181818;stroke-width:1;" x1="401.7588" x2="401.7588" y1="223.2031" y2="804.5425"/><line style="stroke:#181818;stroke-width:1;" x1="401.7588" x2="279.7275" y1="804.5425" y2="804.5425"/><polygon fill="#181818" points="289.7275,800.5425,279.7275,804.5425,289.7275,808.5425,285.7275,804.5425" style="stroke:#181818;stroke-width:1;"/><line style="stroke:#181818;stroke-width:1;" x1="267.7275" x2="267.7275" y1="121.2656" y2="141.2656"/><polygon fill="#181818" points="263.7275,131.2656,267.7275,141.2656,271.7275,131.2656,267.7275,135.2656" style="stroke:#181818;stroke-width:1;"/><line style="stroke:#181818;stroke-width:1;" x1="267.7275" x2="267.7275" y1="816.5425" y2="836.5425"/><polygon fill="#181818" points="263.7275,826.5425,267.7275,836.5425,271.7275,826.5425,267.7275,830.5425" style="stroke:#181818;stroke-width:1;"/><!--SRC=[TLBBReD03BplL_ZG0v7w1N3eeOsgdAYY_C0MJ6C9Tf7NWV3tzI8UGIHxipssPyOh93N29wCLSdzmmQQjhM0mnWInB2OTQmWM7FOWK_qTUf9hJDe6CsEeWkJj-7Mwv6T0rn5xrw0Jw2oJ_TKD522WV1n0hkWW6J0SZ05ziNFU2YKn5k9v0BnJaB35HpZM0I5nVkgERsOekodPWebRZioUznENCMTiFGjWX85uk0NaR0C9ujibyOG9kfAg9J9hQg_qbRwHoG_xffMHGEnIo02zLJkLbU-GUoQ9hZ-go-VyyvahszU2LgfRz4CX_KQ770M4mbQLhylLzafjMprByrP9B4LoCFqFvMssyzEJ2yAtObAi8lMhp70DHv1g8eQMiT83OLnxrrkLf7VEpCGmola7]--></g></svg>