<svg xmlns="http://www.w3.org/2000/svg" xmlns:xlink="http://www.w3.org/1999/xlink" contentStyleType="text/css" data-diagram-type="ACTIVITY" height="334px" preserveAspectRatio="none" style="width:182px;height:334px;background:#FFFFFF;" version="1.1" viewBox="0 0 182 334" width="182px" zoomAndPan="magnify"><title>Editing a Spec</title><defs/><g><g class="title" data-source-line="1"><text fill="#000000" font-family="sans-serif" font-size="14" font-weight="bold" lengthAdjust="spacing" textLength="112.957" x="33.2094" y="32.9951">Editing a Spec</text></g><ellipse cx="85.623" cy="57.2969" fill="#222222" rx="10" ry="10" style="stroke:#222222;stroke-width:1;"/><rect fill="#F1F1F1" height="33.9688" rx="12.5" ry="12.5" style="stroke:#181818;stroke-width:0.5;" width="149.2461" x="11" y="87.2969"/><text fill="#000000" font-family="sans-serif" font-size="12" lengthAdjust="spacing" textLength="129.2461" x="21" y="108.4355">Edit a given template</text><rect fill="#F1F1F1" height="47.9375" rx="12.5" ry="12.5" style="stroke:#181818;stroke-width:0.5;" width="110.0352" x="30.6055" y="189.668"/><text fill="#000000" font-family="sans-serif" font-size="12" lengthAdjust="spacing" textLength="90.0352" x="40.6055" y="210.8066">Open template</text><text fill="#000000" font-family="sans-serif" font-size="12" lengthAdjust="spacing" textLength="67.8633" x="40.6055" y="224.7754">in $EDITOR</text><polygon fill="#F1F1F1" points="38.8704,141.2656,132.3757,141.2656,144.3757,153.2656,132.3757,165.2656,38.8704,165.2656,26.8704,153.2656,38.8704,141.2656" style="stroke:#181818;stroke-width:0.5;"/><text fill="#000000" font-family="sans-serif" font-size="11" lengthAdjust="spacing" textLength="19.0083" x="89.623" y="175.4761">yes</text><text fill="#000000" font-family="sans-serif" font-size="11" lengthAdjust="spacing" textLength="93.5054" x="38.8704" y="157.0737">Template exists?</text><text fill="#000000" font-family="sans-serif" font-size="11" lengthAdjust="spacing" textLength="13.7017" x="144.3757" y="150.6714">no</text><polygon fill="#F1F1F1" points="85.623,257.6055,97.623,269.6055,85.623,281.6055,73.623,269.6055,85.623,257.6055" style="stroke:#181818;stroke-width:0.5;"/><ellipse cx="85.623" cy="312.6055" fill="none" rx="11" ry="11" style="stroke:#222222;stroke-width:1;"/><ellipse cx="85.623" cy="312.6055" fill="#222222" rx="6" ry="6" style="stroke:#222222;stroke-width:1;"/><line style="stroke:#181818;stroke-width:1;" x1="85.623" x2="85.623" y1="67.2969" y2="87.2969"/><polygon fill="#181818" points="81.623,77.2969,85.623,87.2969,89.623,77.2969,85.623,81.2969" style="stroke:#181818;stroke-width:1;"/><line style="stroke:#181818;stroke-width:1;" x1="85.623" x2="85.623" y1="165.2656" y2="189.668"/><polygon fill="#181818" points="81.623,179.668,85.623,189.668,89.623,179.668,85.623,183.668" style="stroke:#181818;stroke-width:1;"/><line style="stroke:#181818;stroke-width:1;" x1="144.3757" x2="156.3757" y1="153.2656" y2="153.2656"/><polygon fill="#181818" points="152.3757,203.6367,156.3757,213.6367,160.3757,203.6367,156.3757,207.6367" style="stroke:#181818;stroke-width:1;"/><line style="stroke:#181818;stroke-width:1;" x1="156.3757" x2="156.3757" y1="153.2656" y2="269.6055"/><line style="stroke:#181818;stroke-width:1;" x1="156.3757" x2="97.623" y1="269.6055" y2="269.6055"/><polygon fill="#181818" points="107.623,265.6055,97.623,269.6055,107.623,273.6055,103.623,269.6055" style="stroke:#181818;stroke-width:1;"/><line style="stroke:#181818;stroke-width:1;" x1="85.623" x2="85.623" y1="237.6055" y2="257.6055"/><polygon fill="#181818" points="81.623,247.6055,85.623,257.6055,89.623,247.6055,85.623,251.6055" style="stroke:#181818;stroke-width:1;"/><line style="stroke:#181818;stroke-width:1;" x1="85.623" x2="85.623" y1="121.2656" y2="141.2656"/><polygon fill="#181818" points="81.623,131.2656,85.623,141.2656,89.623,131.2656,85.623,135.2656" style="stroke:#181818;stroke-width:1;"/><line style="stroke:#181818;stroke-width:1;" x1="85.623" x2="85.623" y1="281.6055" y2="301.6055"/><polygon fill="#181818" points="81.623,291.6055,85.623,301.6055,89.623,291.6055,85.623,295.6055" style="stroke:#181818;stroke-width:1;"/><!--SRC=[JOsn3i9034FtV4K6XhjVQ8SkT62g1Fs14tLBf2CzaQY2l-TQCU3DpxRiuXdSJ-AY2oU-5To9o3ozd9gTLxZ81cN7i-JaQ6ikCuVnvnblCRSkiZzgBNnWaRYg6ShVx42YVEhFbt6ujeHiuA1h9EWaCnstQ_a2]--></g></svg>