<svg xmlns="http://www.w3.org/2000/svg" xmlns:xlink="http://www.w3.org/1999/xlink" contentStyleType="text/css" data-diagram-type="ACTIVITY" height="503px" preserveAspectRatio="none" style="width:890px;height:503px;background:#FFFFFF;" version="1.1" viewBox="0 0 890 503" width="890px" zoomAndPan="magnify"><title>Editing Templates</title><defs/><g><g class="title" data-source-line="1"><text fill="#000000" font-family="sans-serif" font-size="14" font-weight="bold" lengthAdjust="spacing" textLength="143.1582" x="371.9619" y="32.9951">Editing Templates</text></g><ellipse cx="542.3698" cy="57.2969" fill="#222222" rx="10" ry="10" style="stroke:#222222;stroke-width:1;"/><rect fill="#F1F1F1" height="33.9688" rx="12.5" ry="12.5" style="stroke:#181818;stroke-width:0.5;" width="149.2461" x="467.7467" y="87.2969"/><text fill="#000000" font-family="sans-serif" font-size="12" lengthAdjust="spacing" textLength="129.2461" x="477.7467" y="108.4355">Edit a given template</text><polygon fill="#F1F1F1" points="437.9799,141.2656,646.7596,141.2656,658.7596,153.2656,646.7596,165.2656,437.9799,165.2656,425.9799,153.2656,437.9799,141.2656" style="stroke:#181818;stroke-width:0.5;"/><text fill="#000000" font-family="sans-serif" font-size="11" lengthAdjust="spacing" textLength="208.7798" x="437.9799" y="157.0737">$EDITOR environment variable is set?</text><text fill="#000000" font-family="sans-serif" font-size="11" lengthAdjust="spacing" textLength="19.0083" x="406.9716" y="150.6714">yes</text><text fill="#000000" font-family="sans-serif" font-size="11" lengthAdjust="spacing" textLength="13.7017" x="658.7596" y="150.6714">no</text><polygon fill="#F1F1F1" points="235.7969,175.2656,382.2505,175.2656,394.2505,187.2656,382.2505,199.2656,235.7969,199.2656,223.7969,187.2656,235.7969,175.2656" style="stroke:#181818;stroke-width:0.5;"/><text fill="#000000" font-family="sans-serif" font-size="11" lengthAdjust="spacing" textLength="146.4536" x="235.7969" y="191.0737">Template directory exists?</text><text fill="#000000" font-family="sans-serif" font-size="11" lengthAdjust="spacing" textLength="19.0083" x="204.7886" y="184.6714">yes</text><text fill="#000000" font-family="sans-serif" font-size="11" lengthAdjust="spacing" textLength="13.7017" x="394.2505" y="184.6714">no</text><polygon fill="#F1F1F1" points="98.9807,209.2656,192.4861,209.2656,204.4861,221.2656,192.4861,233.2656,98.9807,233.2656,86.9807,221.2656,98.9807,209.2656" style="stroke:#181818;stroke-width:0.5;"/><text fill="#000000" font-family="sans-serif" font-size="11" lengthAdjust="spacing" textLength="93.5054" x="98.9807" y="225.0737">Template exists?</text><text fill="#000000" font-family="sans-serif" font-size="11" lengthAdjust="spacing" textLength="19.0083" x="67.9724" y="218.6714">yes</text><text fill="#000000" font-family="sans-serif" font-size="11" lengthAdjust="spacing" textLength="13.7017" x="204.4861" y="218.6714">no</text><rect fill="#F1F1F1" height="47.9375" rx="12.5" ry="12.5" style="stroke:#181818;stroke-width:0.5;" width="110.0352" x="11" y="243.2656"/><text fill="#000000" font-family="sans-serif" font-size="12" lengthAdjust="spacing" textLength="90.0352" x="21" y="264.4043">Open template</text><text fill="#000000" font-family="sans-serif" font-size="12" lengthAdjust="spacing" textLength="67.8633" x="21" y="278.373">in $EDITOR</text><rect fill="#F1F1F1" height="47.9375" rx="12.5" ry="12.5" style="stroke:#181818;stroke-width:0.5;" width="168.8281" x="141.0352" y="243.2656"/><text fill="#000000" font-family="sans-serif" font-size="12" lengthAdjust="spacing" textLength="148.8281" x="151.0352" y="264.4043">Create new template file</text><text fill="#000000" font-family="sans-serif" font-size="12" lengthAdjust="spacing" textLength="128.0156" x="151.0352" y="278.373">and open in $EDITOR</text><polygon fill="#F1F1F1" points="145.7334,297.2031,157.7334,309.2031,145.7334,321.2031,133.7334,309.2031,145.7334,297.2031" style="stroke:#181818;stroke-width:0.5;"/><rect fill="#F1F1F1" height="33.9688" rx="12.5" ry="12.5" style="stroke:#181818;stroke-width:0.5;" width="175.8828" x="384.3726" y="209.2656"/><text fill="#000000" font-family="sans-serif" font-size="12" lengthAdjust="spacing" textLength="155.8828" x="394.3726" y="230.4043">Create template directory</text><polygon fill="#F1F1F1" points="455.771,278.2344,488.8569,278.2344,500.8569,290.2344,488.8569,302.2344,455.771,302.2344,443.771,290.2344,455.771,278.2344" style="stroke:#181818;stroke-width:0.5;"/><text fill="#000000" font-family="sans-serif" font-size="11" lengthAdjust="spacing" textLength="33.0859" x="455.771" y="294.0425">Error?</text><text fill="#000000" font-family="sans-serif" font-size="11" lengthAdjust="spacing" textLength="19.0083" x="424.7627" y="287.6401">yes</text><text fill="#000000" font-family="sans-serif" font-size="11" lengthAdjust="spacing" textLength="13.7017" x="500.8569" y="287.6401">no</text><rect fill="#F1F1F1" height="33.9688" rx="12.5" ry="12.5" style="stroke:#181818;stroke-width:0.5;" width="93.6582" x="349.8633" y="312.2344"/><text fill="#000000" font-family="sans-serif" font-size="12" lengthAdjust="spacing" textLength="73.6582" x="359.8633" y="333.373">Report error</text><rect fill="#F1F1F1" height="47.9375" rx="12.5" ry="12.5" style="stroke:#181818;stroke-width:0.5;" width="168.8281" x="463.5215" y="312.2344"/><text fill="#000000" font-family="sans-serif" font-size="12" lengthAdjust="spacing" textLength="148.8281" x="473.5215" y="333.373">Create new template file</text><text fill="#000000" font-family="sans-serif" font-size="12" lengthAdjust="spacing" textLength="128.0156" x="473.5215" y="347.3418">and open in $EDITOR</text><polygon fill="#F1F1F1" points="472.314,366.1719,484.314,378.1719,472.314,390.1719,460.314,378.1719,472.314,366.1719" style="stroke:#181818;stroke-width:0.5;"/><polygon fill="#F1F1F1" points="309.0237,396.1719,321.0237,408.1719,309.0237,420.1719,297.0237,408.1719,309.0237,396.1719" style="stroke:#181818;stroke-width:0.5;"/><rect fill="#F1F1F1" height="47.9375" rx="12.5" ry="12.5" style="stroke:#181818;stroke-width:0.5;" width="206.7324" x="672.3496" y="175.2656"/><text fill="#000000" font-family="sans-serif" font-size="12" lengthAdjust="spacing" textLength="186.7324" x="682.3496" y="196.4043">Instruct user to set $EDITOR to</text><text fill="#000000" font-family="sans-serif" font-size="12" lengthAdjust="spacing" textLength="155.0215" x="682.3496" y="210.373">their preferred text editor</text><polygon fill="#F1F1F1" points="542.3698,426.1719,554.3698,438.1719,542.3698,450.1719,530.3698,438.1719,542.3698,426.1719" style="stroke:#181818;stroke-width:0.5;"/><ellipse cx="542.3698" cy="481.1719" fill="none" rx="11" ry="11" style="stroke:#222222;stroke-width:1;"/><ellipse cx="542.3698" cy="481.1719" fill="#222222" rx="6" ry="6" style="stroke:#222222;stroke-width:1;"/><line style="stroke:#181818;stroke-width:1;" x1="542.3698" x2="542.3698" y1="67.2969" y2="87.2969"/><polygon fill="#181818" points="538.3698,77.2969,542.3698,87.2969,546.3698,77.2969,542.3698,81.2969" style="stroke:#181818;stroke-width:1;"/><line style="stroke:#181818;stroke-width:1;" x1="86.9807" x2="66.0176" y1="221.2656" y2="221.2656"/><line style="stroke:#181818;stroke-width:1;" x1="66.0176" x2="66.0176" y1="221.2656" y2="243.2656"/><polygon fill="#181818" points="62.0176,233.2656,66.0176,243.2656,70.0176,233.2656,66.0176,237.2656" style="stroke:#181818;stroke-width:1;"/><line style="stroke:#181818;stroke-width:1;" x1="204.4861" x2="225.4492" y1="221.2656" y2="221.2656"/><line style="stroke:#181818;stroke-width:1;" x1="225.4492" x2="225.4492" y1="221.2656" y2="243.2656"/><polygon fill="#181818" points="221.4492,233.2656,225.4492,243.2656,229.4492,233.2656,225.4492,237.2656" style="stroke:#181818;stroke-width:1;"/><line style="stroke:#181818;stroke-width:1;" x1="66.0176" x2="66.0176" y1="291.2031" y2="309.2031"/><line style="stroke:#181818;stroke-width:1;" x1="66.0176" x2="133.7334" y1="309.2031" y2="309.2031"/><polygon fill="#181818" points="123.7334,305.2031,133.7334,309.2031,123.7334,313.2031,127.7334,309.2031" style="stroke:#181818;stroke-width:1;"/><line style="stroke:#181818;stroke-width:1;" x1="225.4492" x2="225.4492" y1="291.2031" y2="309.2031"/><line style="stroke:#181818;stroke-width:1;" x1="225.4492" x2="157.7334" y1="309.2031" y2="309.2031"/><polygon fill="#181818" points="167.7334,305.2031,157.7334,309.2031,167.7334,313.2031,163.7334,309.2031" style="stroke:#181818;stroke-width:1;"/><line style="stroke:#181818;stroke-width:1;" x1="443.771" x2="396.6924" y1="290.2344" y2="290.2344"/><line style="stroke:#181818;stroke-width:1;" x1="396.6924" x2="396.6924" y1="290.2344" y2="312.2344"/><polygon fill="#181818" points="392.6924,302.2344,396.6924,312.2344,400.6924,302.2344,396.6924,306.2344" style="stroke:#181818;stroke-width:1;"/><line style="stroke:#181818;stroke-width:1;" x1="500.8569" x2="547.9355" y1="290.2344" y2="290.2344"/><line style="stroke:#181818;stroke-width:1;" x1="547.9355" x2="547.9355" y1="290.2344" y2="312.2344"/><polygon fill="#181818" points="543.9355,302.2344,547.9355,312.2344,551.9355,302.2344,547.9355,306.2344" style="stroke:#181818;stroke-width:1;"/><line style="stroke:#181818;stroke-width:1;" x1="396.6924" x2="396.6924" y1="346.2031" y2="378.1719"/><line style="stroke:#181818;stroke-width:1;" x1="396.6924" x2="460.314" y1="378.1719" y2="378.1719"/><polygon fill="#181818" points="450.314,374.1719,460.314,378.1719,450.314,382.1719,454.314,378.1719" style="stroke:#181818;stroke-width:1;"/><line style="stroke:#181818;stroke-width:1;" x1="547.9355" x2="547.9355" y1="360.1719" y2="378.1719"/><line style="stroke:#181818;stroke-width:1;" x1="547.9355" x2="484.314" y1="378.1719" y2="378.1719"/><polygon fill="#181818" points="494.314,374.1719,484.314,378.1719,494.314,382.1719,490.314,378.1719" style="stroke:#181818;stroke-width:1;"/><line style="stroke:#181818;stroke-width:1;" x1="472.314" x2="472.314" y1="243.2344" y2="278.2344"/><polygon fill="#181818" points="468.314,268.2344,472.314,278.2344,476.314,268.2344,472.314,272.2344" style="stroke:#181818;stroke-width:1;"/><line style="stroke:#181818;stroke-width:1;" x1="223.7969" x2="145.7334" y1="187.2656" y2="187.2656"/><line style="stroke:#181818;stroke-width:1;" x1="145.7334" x2="145.7334" y1="187.2656" y2="209.2656"/><polygon fill="#181818" points="141.7334,199.2656,145.7334,209.2656,149.7334,199.2656,145.7334,203.2656" style="stroke:#181818;stroke-width:1;"/><line style="stroke:#181818;stroke-width:1;" x1="394.2505" x2="472.314" y1="187.2656" y2="187.2656"/><line style="stroke:#181818;stroke-width:1;" x1="472.314" x2="472.314" y1="187.2656" y2="209.2656"/><polygon fill="#181818" points="468.314,199.2656,472.314,209.2656,476.314,199.2656,472.314,203.2656" style="stroke:#181818;stroke-width:1;"/><line style="stroke:#181818;stroke-width:1;" x1="145.7334" x2="145.7334" y1="321.2031" y2="408.1719"/><line style="stroke:#181818;stroke-width:1;" x1="145.7334" x2="297.0237" y1="408.1719" y2="408.1719"/><polygon fill="#181818" points="287.0237,404.1719,297.0237,408.1719,287.0237,412.1719,291.0237,408.1719" style="stroke:#181818;stroke-width:1;"/><line style="stroke:#181818;stroke-width:1;" x1="472.314" x2="472.314" y1="390.1719" y2="408.1719"/><line style="stroke:#181818;stroke-width:1;" x1="472.314" x2="321.0237" y1="408.1719" y2="408.1719"/><polygon fill="#181818" points="331.0237,404.1719,321.0237,408.1719,331.0237,412.1719,327.0237,408.1719" style="stroke:#181818;stroke-width:1;"/><line style="stroke:#181818;stroke-width:1;" x1="425.9799" x2="309.0237" y1="153.2656" y2="153.2656"/><line style="stroke:#181818;stroke-width:1;" x1="309.0237" x2="309.0237" y1="153.2656" y2="175.2656"/><polygon fill="#181818" points="305.0237,165.2656,309.0237,175.2656,313.0237,165.2656,309.0237,169.2656" style="stroke:#181818;stroke-width:1;"/><line style="stroke:#181818;stroke-width:1;" x1="658.7596" x2="775.7158" y1="153.2656" y2="153.2656"/><line style="stroke:#181818;stroke-width:1;" x1="775.7158" x2="775.7158" y1="153.2656" y2="175.2656"/><polygon fill="#181818" points="771.7158,165.2656,775.7158,175.2656,779.7158,165.2656,775.7158,169.2656" style="stroke:#181818;stroke-width:1;"/><line style="stroke:#181818;stroke-width:1;" x1="309.0237" x2="309.0237" y1="420.1719" y2="438.1719"/><line style="stroke:#181818;stroke-width:1;" x1="309.0237" x2="530.3698" y1="438.1719" y2="438.1719"/><polygon fill="#181818" points="520.3698,434.1719,530.3698,438.1719,520.3698,442.1719,524.3698,438.1719" style="stroke:#181818;stroke-width:1;"/><line style="stroke:#181818;stroke-width:1;" x1="775.7158" x2="775.7158" y1="223.2031" y2="438.1719"/><line style="stroke:#181818;stroke-width:1;" x1="775.7158" x2="554.3698" y1="438.1719" y2="438.1719"/><polygon fill="#181818" points="564.3698,434.1719,554.3698,438.1719,564.3698,442.1719,560.3698,438.1719" style="stroke:#181818;stroke-width:1;"/><line style="stroke:#181818;stroke-width:1;" x1="542.3698" x2="542.3698" y1="121.2656" y2="141.2656"/><polygon fill="#181818" points="538.3698,131.2656,542.3698,141.2656,546.3698,131.2656,542.3698,135.2656" style="stroke:#181818;stroke-width:1;"/><line style="stroke:#181818;stroke-width:1;" x1="542.3698" x2="542.3698" y1="450.1719" y2="470.1719"/><polygon fill="#181818" points="538.3698,460.1719,542.3698,470.1719,546.3698,460.1719,542.3698,464.1719" style="stroke:#181818;stroke-width:1;"/><!--SRC=[lLAzSi8m3Dxz5D_G8Rn2CdIW6PYuutW1boXKTy7EIIA5jwyDWHB8TQmcs_hq_VXaR1sXRjWuxB6bGzzv8tNEgNanL-OMFFOyK82D_SevRb6yrH-hxNe32WDB30SAXi4B-y_4oGebUr_0lj9aSIPTE8TKUV8cX8Q5TXRb33gncixWNsRca7YeSjq_U9sqE60qNTtVgLD24U8JoL8eYmNwlbEXvMxAvqE3cDLcYKF3xJN3huPx5h2NhwYckMkHA7-atL0VnK0Pzi-fhiUfLBaAQdBS6OvA0ejv3MuqwNe1fImiw8NQP9kQvEMK4gHLon56MhNO_m00]--></g></svg>