<svg xmlns="http://www.w3.org/2000/svg" xmlns:xlink="http://www.w3.org/1999/xlink" contentStyleType="text/css" data-diagram-type="ACTIVITY" height="679px" preserveAspectRatio="none" style="width:509px;height:679px;background:#FFFFFF;" version="1.1" viewBox="0 0 509 679" width="509px" zoomAndPan="magnify"><title>File(s) Generation</title><defs/><g><g class="title" data-source-line="1"><text fill="#000000" font-family="sans-serif" font-size="14" font-weight="bold" lengthAdjust="spacing" textLength="142.5361" x="181.8511" y="32.9951">File(s) Generation</text></g><ellipse cx="297.1606" cy="57.2969" fill="#222222" rx="10" ry="10" style="stroke:#222222;stroke-width:1;"/><rect fill="#F1F1F1" height="47.9375" rx="12.5" ry="12.5" style="stroke:#181818;stroke-width:0.5;" width="163.3027" x="215.5093" y="87.2969"/><text fill="#000000" font-family="sans-serif" font-size="12" lengthAdjust="spacing" textLength="143.3027" x="225.5093" y="108.4355">Generate template with</text><text fill="#000000" font-family="sans-serif" font-size="12" lengthAdjust="spacing" textLength="132.2578" x="225.5093" y="122.4043">user-specified options</text><polygon fill="#F1F1F1" points="242.9395,155.2344,351.3818,155.2344,363.3818,168.0391,351.3818,180.8438,242.9395,180.8438,230.9395,168.0391,242.9395,155.2344" style="stroke:#181818;stroke-width:0.5;"/><text fill="#000000" font-family="sans-serif" font-size="11" lengthAdjust="spacing" textLength="101.1914" x="242.9395" y="165.4448">Template exists in</text><text fill="#000000" font-family="sans-serif" font-size="11" lengthAdjust="spacing" textLength="108.4424" x="242.9395" y="178.2495">template directory?</text><text fill="#000000" font-family="sans-serif" font-size="11" lengthAdjust="spacing" textLength="19.0083" x="211.9312" y="165.4448">yes</text><text fill="#000000" font-family="sans-serif" font-size="11" lengthAdjust="spacing" textLength="13.7017" x="363.3818" y="165.4448">no</text><rect fill="#F1F1F1" height="33.9688" rx="12.5" ry="12.5" style="stroke:#181818;stroke-width:0.5;" width="164.9844" x="83.3447" y="190.8438"/><text fill="#000000" font-family="sans-serif" font-size="12" lengthAdjust="spacing" textLength="144.9844" x="93.3447" y="211.9824">Unmarshal template file</text><rect fill="#F1F1F1" height="33.9688" rx="12.5" ry="12.5" style="stroke:#181818;stroke-width:0.5;" width="231.3535" x="50.1602" y="300.5229"/><text fill="#000000" font-family="sans-serif" font-size="12" lengthAdjust="spacing" textLength="211.3535" x="60.1602" y="321.6616">Create parent directories if needed</text><rect fill="#F1F1F1" height="47.9375" rx="12.5" ry="12.5" style="stroke:#181818;stroke-width:0.5;" width="180.5703" x="75.5518" y="354.4917"/><text fill="#000000" font-family="sans-serif" font-size="12" lengthAdjust="spacing" textLength="160.5703" x="85.5518" y="375.6304">Apply options and defaults</text><text fill="#000000" font-family="sans-serif" font-size="12" lengthAdjust="spacing" textLength="126.041" x="85.5518" y="389.5991">to template contents</text><rect fill="#F1F1F1" height="33.9688" rx="12.5" ry="12.5" style="stroke:#181818;stroke-width:0.5;" width="221.416" x="55.1289" y="422.4292"/><text fill="#000000" font-family="sans-serif" font-size="12" lengthAdjust="spacing" textLength="201.416" x="65.1289" y="443.5679">Write templatized contents to file</text><polygon fill="#F1F1F1" points="80.8796,244.8125,250.7942,244.8125,262.7942,256.8125,250.7942,268.8125,80.8796,268.8125,68.8796,256.8125,80.8796,244.8125" style="stroke:#181818;stroke-width:0.5;"/><text fill="#000000" font-family="sans-serif" font-size="11" lengthAdjust="spacing" textLength="22.5747" x="169.8369" y="279.0229">true</text><text fill="#000000" font-family="sans-serif" font-size="11" lengthAdjust="spacing" textLength="169.9146" x="80.8796" y="260.6206">More templates and no errors?</text><text fill="#000000" font-family="sans-serif" font-size="11" lengthAdjust="spacing" textLength="26.168" x="42.7117" y="254.2183">false</text><polygon fill="#F1F1F1" points="123.2495,498.3979,208.4243,498.3979,220.4243,510.3979,208.4243,522.3979,123.2495,522.3979,111.2495,510.3979,123.2495,498.3979" style="stroke:#181818;stroke-width:0.5;"/><text fill="#000000" font-family="sans-serif" font-size="11" lengthAdjust="spacing" textLength="85.1748" x="123.2495" y="514.2061">Error occurred?</text><text fill="#000000" font-family="sans-serif" font-size="11" lengthAdjust="spacing" textLength="19.0083" x="92.2412" y="507.8037">yes</text><text fill="#000000" font-family="sans-serif" font-size="11" lengthAdjust="spacing" textLength="13.7017" x="220.4243" y="507.8037">no</text><rect fill="#F1F1F1" height="33.9688" rx="12.5" ry="12.5" style="stroke:#181818;stroke-width:0.5;" width="140.8086" x="11" y="532.3979"/><text fill="#000000" font-family="sans-serif" font-size="12" lengthAdjust="spacing" textLength="120.8086" x="21" y="553.5366">Report issue to user</text><rect fill="#F1F1F1" height="33.9688" rx="12.5" ry="12.5" style="stroke:#181818;stroke-width:0.5;" width="156.9219" x="171.8086" y="532.3979"/><text fill="#000000" font-family="sans-serif" font-size="12" lengthAdjust="spacing" textLength="136.9219" x="181.8086" y="553.5366">Report success to user</text><polygon fill="#F1F1F1" points="165.8369,572.3667,177.8369,584.3667,165.8369,596.3667,153.8369,584.3667,165.8369,572.3667" style="stroke:#181818;stroke-width:0.5;"/><rect fill="#F1F1F1" height="33.9688" rx="12.5" ry="12.5" style="stroke:#181818;stroke-width:0.5;" width="139.5078" x="358.7305" y="190.8438"/><text fill="#000000" font-family="sans-serif" font-size="12" lengthAdjust="spacing" textLength="119.5078" x="368.7305" y="211.9824">Report error to user</text><polygon fill="#F1F1F1" points="297.1606,602.3667,309.1606,614.3667,297.1606,626.3667,285.1606,614.3667,297.1606,602.3667" style="stroke:#181818;stroke-width:0.5;"/><ellipse cx="297.1606" cy="657.3667" fill="none" rx="11" ry="11" style="stroke:#222222;stroke-width:1;"/><ellipse cx="297.1606" cy="657.3667" fill="#222222" rx="6" ry="6" style="stroke:#222222;stroke-width:1;"/><line style="stroke:#181818;stroke-width:1;" x1="297.1606" x2="297.1606" y1="67.2969" y2="87.2969"/><polygon fill="#181818" points="293.1606,77.2969,297.1606,87.2969,301.1606,77.2969,297.1606,81.2969" style="stroke:#181818;stroke-width:1;"/><line style="stroke:#181818;stroke-width:1;" x1="165.8369" x2="165.8369" y1="334.4917" y2="354.4917"/><polygon fill="#181818" points="161.8369,344.4917,165.8369,354.4917,169.8369,344.4917,165.8369,348.4917" style="stroke:#181818;stroke-width:1;"/><line style="stroke:#181818;stroke-width:1;" x1="165.8369" x2="165.8369" y1="402.4292" y2="422.4292"/><polygon fill="#181818" points="161.8369,412.4292,165.8369,422.4292,169.8369,412.4292,165.8369,416.4292" style="stroke:#181818;stroke-width:1;"/><line style="stroke:#181818;stroke-width:1;" x1="165.8369" x2="165.8369" y1="268.8125" y2="300.5229"/><polygon fill="#181818" points="161.8369,290.5229,165.8369,300.5229,169.8369,290.5229,165.8369,294.5229" style="stroke:#181818;stroke-width:1;"/><line style="stroke:#181818;stroke-width:1;" x1="165.8369" x2="165.8369" y1="456.3979" y2="466.3979"/><line style="stroke:#181818;stroke-width:1;" x1="165.8369" x2="293.5137" y1="466.3979" y2="466.3979"/><polygon fill="#181818" points="289.5137,370.0581,293.5137,360.0581,297.5137,370.0581,293.5137,366.0581" style="stroke:#181818;stroke-width:1;"/><line style="stroke:#181818;stroke-width:1;" x1="293.5137" x2="293.5137" y1="256.8125" y2="466.3979"/><line style="stroke:#181818;stroke-width:1;" x1="293.5137" x2="262.7942" y1="256.8125" y2="256.8125"/><polygon fill="#181818" points="272.7942,252.8125,262.7942,256.8125,272.7942,260.8125,268.7942,256.8125" style="stroke:#181818;stroke-width:1;"/><line style="stroke:#181818;stroke-width:1;" x1="68.8796" x2="38.1602" y1="256.8125" y2="256.8125"/><polygon fill="#181818" points="34.1602,356.0581,38.1602,366.0581,42.1602,356.0581,38.1602,360.0581" style="stroke:#181818;stroke-width:1;"/><line style="stroke:#181818;stroke-width:1;" x1="38.1602" x2="38.1602" y1="256.8125" y2="478.3979"/><line style="stroke:#181818;stroke-width:1;" x1="38.1602" x2="165.8369" y1="478.3979" y2="478.3979"/><line style="stroke:#181818;stroke-width:1;" x1="165.8369" x2="165.8369" y1="478.3979" y2="498.3979"/><polygon fill="#181818" points="161.8369,488.3979,165.8369,498.3979,169.8369,488.3979,165.8369,492.3979" style="stroke:#181818;stroke-width:1;"/><line style="stroke:#181818;stroke-width:1;" x1="165.8369" x2="165.8369" y1="224.8125" y2="244.8125"/><polygon fill="#181818" points="161.8369,234.8125,165.8369,244.8125,169.8369,234.8125,165.8369,238.8125" style="stroke:#181818;stroke-width:1;"/><line style="stroke:#181818;stroke-width:1;" x1="111.2495" x2="81.4043" y1="510.3979" y2="510.3979"/><line style="stroke:#181818;stroke-width:1;" x1="81.4043" x2="81.4043" y1="510.3979" y2="532.3979"/><polygon fill="#181818" points="77.4043,522.3979,81.4043,532.3979,85.4043,522.3979,81.4043,526.3979" style="stroke:#181818;stroke-width:1;"/><line style="stroke:#181818;stroke-width:1;" x1="220.4243" x2="250.2695" y1="510.3979" y2="510.3979"/><line style="stroke:#181818;stroke-width:1;" x1="250.2695" x2="250.2695" y1="510.3979" y2="532.3979"/><polygon fill="#181818" points="246.2695,522.3979,250.2695,532.3979,254.2695,522.3979,250.2695,526.3979" style="stroke:#181818;stroke-width:1;"/><line style="stroke:#181818;stroke-width:1;" x1="81.4043" x2="81.4043" y1="566.3667" y2="584.3667"/><line style="stroke:#181818;stroke-width:1;" x1="81.4043" x2="153.8369" y1="584.3667" y2="584.3667"/><polygon fill="#181818" points="143.8369,580.3667,153.8369,584.3667,143.8369,588.3667,147.8369,584.3667" style="stroke:#181818;stroke-width:1;"/><line style="stroke:#181818;stroke-width:1;" x1="250.2695" x2="250.2695" y1="566.3667" y2="584.3667"/><line style="stroke:#181818;stroke-width:1;" x1="250.2695" x2="177.8369" y1="584.3667" y2="584.3667"/><polygon fill="#181818" points="187.8369,580.3667,177.8369,584.3667,187.8369,588.3667,183.8369,584.3667" style="stroke:#181818;stroke-width:1;"/><line style="stroke:#181818;stroke-width:1;" x1="230.9395" x2="165.8369" y1="168.0391" y2="168.0391"/><line style="stroke:#181818;stroke-width:1;" x1="165.8369" x2="165.8369" y1="168.0391" y2="190.8438"/><polygon fill="#181818" points="161.8369,180.8438,165.8369,190.8438,169.8369,180.8438,165.8369,184.8438" style="stroke:#181818;stroke-width:1;"/><line style="stroke:#181818;stroke-width:1;" x1="363.3818" x2="428.4844" y1="168.0391" y2="168.0391"/><line style="stroke:#181818;stroke-width:1;" x1="428.4844" x2="428.4844" y1="168.0391" y2="190.8438"/><polygon fill="#181818" points="424.4844,180.8438,428.4844,190.8438,432.4844,180.8438,428.4844,184.8438" style="stroke:#181818;stroke-width:1;"/><line style="stroke:#181818;stroke-width:1;" x1="165.8369" x2="165.8369" y1="596.3667" y2="614.3667"/><line style="stroke:#181818;stroke-width:1;" x1="165.8369" x2="285.1606" y1="614.3667" y2="614.3667"/><polygon fill="#181818" points="275.1606,610.3667,285.1606,614.3667,275.1606,618.3667,279.1606,614.3667" style="stroke:#181818;stroke-width:1;"/><line style="stroke:#181818;stroke-width:1;" x1="428.4844" x2="428.4844" y1="224.8125" y2="614.3667"/><line style="stroke:#181818;stroke-width:1;" x1="428.4844" x2="309.1606" y1="614.3667" y2="614.3667"/><polygon fill="#181818" points="319.1606,610.3667,309.1606,614.3667,319.1606,618.3667,315.1606,614.3667" style="stroke:#181818;stroke-width:1;"/><line style="stroke:#181818;stroke-width:1;" x1="297.1606" x2="297.1606" y1="135.2344" y2="155.2344"/><polygon fill="#181818" points="293.1606,145.2344,297.1606,155.2344,301.1606,145.2344,297.1606,149.2344" style="stroke:#181818;stroke-width:1;"/><line style="stroke:#181818;stroke-width:1;" x1="297.1606" x2="297.1606" y1="626.3667" y2="646.3667"/><polygon fill="#181818" points="293.1606,636.3667,297.1606,646.3667,301.1606,636.3667,297.1606,640.3667" style="stroke:#181818;stroke-width:1;"/><!--SRC=[PL4nRiCm3Dpr2exsq0yaGr4KRQSkHOekNGI9XWaeb43IIDFNLt8SEsqr4TBTyUvaP0dXcH9ssiCBCeetokoScXTpRhVS8HWUIsh3YMnqawBSQS500s64N1fBzyxH0DtX2iKlKbCW_kIL7aamM9RpVGys8aDtHksTWtfsxtpqegDFsxgXcjjVdazZdQ5xpRBPKV0SWJEWI1QjegJGcKpOpvnPzb6mIHKloBOwe4gkTXanObnMpF27KjBvccdMZpZuAPck6CkRmv1hEZQzbVWGsZgZxrhH5TMebqmDY1oNL8DFYaiFhSIdbWTo29C8njzbhMlUi6In6badRCBjMnRXgWOTvnx-eNKA0LN_u3dIu9nRUUwMCfUx4HQmMYu_]--></g></svg>