<svg xmlns="http://www.w3.org/2000/svg" xmlns:xlink="http://www.w3.org/1999/xlink" contentStyleType="text/css" data-diagram-type="ACTIVITY" height="560px" preserveAspectRatio="none" style="width:777px;height:560px;background:#FFFFFF;" version="1.1" viewBox="0 0 777 560" width="777px" zoomAndPan="magnify"><title>Listing Templates</title><defs/><g><g class="title" data-source-line="1"><text fill="#000000" font-family="sans-serif" font-size="14" font-weight="bold" lengthAdjust="spacing" textLength="140.8271" x="316.9702" y="32.9951">Listing Templates</text></g><ellipse cx="448.1736" cy="57.2969" fill="#222222" rx="10" ry="10" style="stroke:#222222;stroke-width:1;"/><rect fill="#F1F1F1" height="33.9688" rx="12.5" ry="12.5" style="stroke:#181818;stroke-width:0.5;" width="123.0488" x="386.6492" y="87.2969"/><text fill="#000000" font-family="sans-serif" font-size="12" lengthAdjust="spacing" textLength="103.0488" x="396.6492" y="108.4355">List all templates</text><polygon fill="#F1F1F1" points="374.9468,141.2656,521.4004,141.2656,533.4004,153.2656,521.4004,165.2656,374.9468,165.2656,362.9468,153.2656,374.9468,141.2656" style="stroke:#181818;stroke-width:0.5;"/><text fill="#000000" font-family="sans-serif" font-size="11" lengthAdjust="spacing" textLength="146.4536" x="374.9468" y="157.0737">Template directory exists?</text><text fill="#000000" font-family="sans-serif" font-size="11" lengthAdjust="spacing" textLength="19.0083" x="343.9385" y="150.6714">yes</text><text fill="#000000" font-family="sans-serif" font-size="11" lengthAdjust="spacing" textLength="13.7017" x="533.4004" y="150.6714">no</text><polygon fill="#F1F1F1" points="163.1875,175.2656,325.1045,175.2656,337.1045,187.2656,325.1045,199.2656,163.1875,199.2656,151.1875,187.2656,163.1875,175.2656" style="stroke:#181818;stroke-width:0.5;"/><text fill="#000000" font-family="sans-serif" font-size="11" lengthAdjust="spacing" textLength="161.917" x="163.1875" y="191.0737">Template directory is empty?</text><text fill="#000000" font-family="sans-serif" font-size="11" lengthAdjust="spacing" textLength="19.0083" x="132.1792" y="184.6714">yes</text><text fill="#000000" font-family="sans-serif" font-size="11" lengthAdjust="spacing" textLength="13.7017" x="337.1045" y="184.6714">no</text><rect fill="#F1F1F1" height="33.9688" rx="12.5" ry="12.5" style="stroke:#181818;stroke-width:0.5;" width="201.9746" x="11" y="209.2656"/><text fill="#000000" font-family="sans-serif" font-size="12" lengthAdjust="spacing" textLength="181.9746" x="21" y="230.4043">Report that directory is empty</text><rect fill="#F1F1F1" height="33.9688" rx="12.5" ry="12.5" style="stroke:#181818;stroke-width:0.5;" width="142.8945" x="304.8574" y="270.0703"/><text fill="#000000" font-family="sans-serif" font-size="12" lengthAdjust="spacing" textLength="122.8945" x="314.8574" y="291.209">Unmarshal template</text><rect fill="#F1F1F1" height="33.9688" rx="12.5" ry="12.5" style="stroke:#181818;stroke-width:0.5;" width="161.3105" x="295.6494" y="324.0391"/><text fill="#000000" font-family="sans-serif" font-size="12" lengthAdjust="spacing" textLength="141.3105" x="305.6494" y="345.1777">Get any default options</text><rect fill="#F1F1F1" height="47.9375" rx="12.5" ry="12.5" style="stroke:#181818;stroke-width:0.5;" width="238.6602" x="256.9746" y="378.0078"/><text fill="#000000" font-family="sans-serif" font-size="12" lengthAdjust="spacing" textLength="212.0098" x="266.9746" y="399.1465">Display metrics: name of template,</text><text fill="#000000" font-family="sans-serif" font-size="12" lengthAdjust="spacing" textLength="218.6602" x="266.9746" y="413.1152">how many files, default options, etc.</text><polygon fill="#F1F1F1" points="330.1885,209.2656,422.4209,209.2656,434.4209,221.2656,422.4209,233.2656,330.1885,233.2656,318.1885,221.2656,330.1885,209.2656" style="stroke:#181818;stroke-width:0.5;"/><text fill="#000000" font-family="sans-serif" font-size="11" lengthAdjust="spacing" textLength="19.0083" x="380.3047" y="243.4761">yes</text><text fill="#000000" font-family="sans-serif" font-size="11" lengthAdjust="spacing" textLength="92.2324" x="330.1885" y="225.0737">More templates?</text><text fill="#000000" font-family="sans-serif" font-size="11" lengthAdjust="spacing" textLength="13.7017" x="304.4868" y="218.6714">no</text><polygon fill="#F1F1F1" points="244.146,453.9453,256.146,465.9453,244.146,477.9453,232.146,465.9453,244.146,453.9453" style="stroke:#181818;stroke-width:0.5;"/><rect fill="#F1F1F1" height="33.9688" rx="12.5" ry="12.5" style="stroke:#181818;stroke-width:0.5;" width="175.8828" x="564.2598" y="175.2656"/><text fill="#000000" font-family="sans-serif" font-size="12" lengthAdjust="spacing" textLength="155.8828" x="574.2598" y="196.4043">Create template directory</text><rect fill="#F1F1F1" height="47.9375" rx="12.5" ry="12.5" style="stroke:#181818;stroke-width:0.5;" width="229.1328" x="537.6348" y="244.2344"/><text fill="#000000" font-family="sans-serif" font-size="12" lengthAdjust="spacing" textLength="209.1328" x="547.6348" y="265.373">Report template directory creation</text><text fill="#000000" font-family="sans-serif" font-size="12" lengthAdjust="spacing" textLength="105.0117" x="547.6348" y="279.3418">success or failure</text><polygon fill="#F1F1F1" points="448.1736,483.9453,460.1736,495.9453,448.1736,507.9453,436.1736,495.9453,448.1736,483.9453" style="stroke:#181818;stroke-width:0.5;"/><ellipse cx="448.1736" cy="538.9453" fill="none" rx="11" ry="11" style="stroke:#222222;stroke-width:1;"/><ellipse cx="448.1736" cy="538.9453" fill="#222222" rx="6" ry="6" style="stroke:#222222;stroke-width:1;"/><line style="stroke:#181818;stroke-width:1;" x1="448.1736" x2="448.1736" y1="67.2969" y2="87.2969"/><polygon fill="#181818" points="444.1736,77.2969,448.1736,87.2969,452.1736,77.2969,448.1736,81.2969" style="stroke:#181818;stroke-width:1;"/><line style="stroke:#181818;stroke-width:1;" x1="376.3047" x2="376.3047" y1="304.0391" y2="324.0391"/><polygon fill="#181818" points="372.3047,314.0391,376.3047,324.0391,380.3047,314.0391,376.3047,318.0391" style="stroke:#181818;stroke-width:1;"/><line style="stroke:#181818;stroke-width:1;" x1="376.3047" x2="376.3047" y1="358.0078" y2="378.0078"/><polygon fill="#181818" points="372.3047,368.0078,376.3047,378.0078,380.3047,368.0078,376.3047,372.0078" style="stroke:#181818;stroke-width:1;"/><line style="stroke:#181818;stroke-width:1;" x1="376.3047" x2="376.3047" y1="233.2656" y2="270.0703"/><polygon fill="#181818" points="372.3047,260.0703,376.3047,270.0703,380.3047,260.0703,376.3047,264.0703" style="stroke:#181818;stroke-width:1;"/><line style="stroke:#181818;stroke-width:1;" x1="376.3047" x2="376.3047" y1="425.9453" y2="435.9453"/><line style="stroke:#181818;stroke-width:1;" x1="376.3047" x2="507.6348" y1="435.9453" y2="435.9453"/><polygon fill="#181818" points="503.6348,339.6055,507.6348,329.6055,511.6348,339.6055,507.6348,335.6055" style="stroke:#181818;stroke-width:1;"/><line style="stroke:#181818;stroke-width:1;" x1="507.6348" x2="507.6348" y1="221.2656" y2="435.9453"/><line style="stroke:#181818;stroke-width:1;" x1="507.6348" x2="434.4209" y1="221.2656" y2="221.2656"/><polygon fill="#181818" points="444.4209,217.2656,434.4209,221.2656,444.4209,225.2656,440.4209,221.2656" style="stroke:#181818;stroke-width:1;"/><line style="stroke:#181818;stroke-width:1;" x1="318.1885" x2="244.9746" y1="221.2656" y2="221.2656"/><polygon fill="#181818" points="240.9746,325.6055,244.9746,335.6055,248.9746,325.6055,244.9746,329.6055" style="stroke:#181818;stroke-width:1;"/><line style="stroke:#181818;stroke-width:1;" x1="244.9746" x2="244.9746" y1="221.2656" y2="447.9453"/><line style="stroke:#181818;stroke-width:1;" x1="244.9746" x2="376.3047" y1="447.9453" y2="447.9453"/><line style="stroke:#181818;stroke-width:1;" x1="376.3047" x2="376.3047" y1="447.9453" y2="465.9453"/><line style="stroke:#181818;stroke-width:1;" x1="376.3047" x2="256.146" y1="465.9453" y2="465.9453"/><polygon fill="#181818" points="266.146,461.9453,256.146,465.9453,266.146,469.9453,262.146,465.9453" style="stroke:#181818;stroke-width:1;"/><line style="stroke:#181818;stroke-width:1;" x1="151.1875" x2="111.9873" y1="187.2656" y2="187.2656"/><line style="stroke:#181818;stroke-width:1;" x1="111.9873" x2="111.9873" y1="187.2656" y2="209.2656"/><polygon fill="#181818" points="107.9873,199.2656,111.9873,209.2656,115.9873,199.2656,111.9873,203.2656" style="stroke:#181818;stroke-width:1;"/><line style="stroke:#181818;stroke-width:1;" x1="337.1045" x2="376.3047" y1="187.2656" y2="187.2656"/><line style="stroke:#181818;stroke-width:1;" x1="376.3047" x2="376.3047" y1="187.2656" y2="209.2656"/><polygon fill="#181818" points="372.3047,199.2656,376.3047,209.2656,380.3047,199.2656,376.3047,203.2656" style="stroke:#181818;stroke-width:1;"/><line style="stroke:#181818;stroke-width:1;" x1="111.9873" x2="111.9873" y1="243.2344" y2="465.9453"/><line style="stroke:#181818;stroke-width:1;" x1="111.9873" x2="232.146" y1="465.9453" y2="465.9453"/><polygon fill="#181818" points="222.146,461.9453,232.146,465.9453,222.146,469.9453,226.146,465.9453" style="stroke:#181818;stroke-width:1;"/><line style="stroke:#181818;stroke-width:1;" x1="652.2012" x2="652.2012" y1="209.2344" y2="244.2344"/><polygon fill="#181818" points="648.2012,234.2344,652.2012,244.2344,656.2012,234.2344,652.2012,238.2344" style="stroke:#181818;stroke-width:1;"/><line style="stroke:#181818;stroke-width:1;" x1="362.9468" x2="244.146" y1="153.2656" y2="153.2656"/><line style="stroke:#181818;stroke-width:1;" x1="244.146" x2="244.146" y1="153.2656" y2="175.2656"/><polygon fill="#181818" points="240.146,165.2656,244.146,175.2656,248.146,165.2656,244.146,169.2656" style="stroke:#181818;stroke-width:1;"/><line style="stroke:#181818;stroke-width:1;" x1="533.4004" x2="652.2012" y1="153.2656" y2="153.2656"/><line style="stroke:#181818;stroke-width:1;" x1="652.2012" x2="652.2012" y1="153.2656" y2="175.2656"/><polygon fill="#181818" points="648.2012,165.2656,652.2012,175.2656,656.2012,165.2656,652.2012,169.2656" style="stroke:#181818;stroke-width:1;"/><line style="stroke:#181818;stroke-width:1;" x1="244.146" x2="244.146" y1="477.9453" y2="495.9453"/><line style="stroke:#181818;stroke-width:1;" x1="244.146" x2="436.1736" y1="495.9453" y2="495.9453"/><polygon fill="#181818" points="426.1736,491.9453,436.1736,495.9453,426.1736,499.9453,430.1736,495.9453" style="stroke:#181818;stroke-width:1;"/><line style="stroke:#181818;stroke-width:1;" x1="652.2012" x2="652.2012" y1="292.1719" y2="495.9453"/><line style="stroke:#181818;stroke-width:1;" x1="652.2012" x2="460.1736" y1="495.9453" y2="495.9453"/><polygon fill="#181818" points="470.1736,491.9453,460.1736,495.9453,470.1736,499.9453,466.1736,495.9453" style="stroke:#181818;stroke-width:1;"/><line style="stroke:#181818;stroke-width:1;" x1="448.1736" x2="448.1736" y1="121.2656" y2="141.2656"/><polygon fill="#181818" points="444.1736,131.2656,448.1736,141.2656,452.1736,131.2656,448.1736,135.2656" style="stroke:#181818;stroke-width:1;"/><line style="stroke:#181818;stroke-width:1;" x1="448.1736" x2="448.1736" y1="507.9453" y2="527.9453"/><polygon fill="#181818" points="444.1736,517.9453,448.1736,527.9453,452.1736,517.9453,448.1736,521.9453" style="stroke:#181818;stroke-width:1;"/><!--SRC=[TL5BJiGm3Dtd55vsf8e3j0iM8B613HeE4AKEjPGcLUngoErncKvBE-1b_9xV9q8I45w9XU8dd74OWnLaOrXi5cEQUGKs193RhZM6F5GtB7IKqKdA1V1BmVnu0kanGbMGJyQ0pZzuOj17ANi6BDEyuvYowChA7wJsUXe38rGnBKhpN7hIJDLRohYvLWrb_lAqodp4mMRkxHQntGDUK1k81JhqTWe2QHHAaG-ePs8b5nXGCZbk8De18VdrQWqxGfykCCndlRhb-dYz1XJtq6vUCNPBi3MiFf4tvb11yvHnxbdk2hywNdkz_n0tCrNz1yUJSyWCAOEt5AQilPX5aYMDtm00]--></g></svg>