<svg xmlns="http://www.w3.org/2000/svg" xmlns:xlink="http://www.w3.org/1999/xlink" contentStyleType="text/css" data-diagram-type="ACTIVITY" height="554px" preserveAspectRatio="none" style="width:756px;height:554px;background:#FFFFFF;" version="1.1" viewBox="0 0 756 554" width="756px" zoomAndPan="magnify"><title>Listing Specs</title><defs/><g><g class="title" data-source-line="1"><text fill="#000000" font-family="sans-serif" font-size="14" font-weight="bold" lengthAdjust="spacing" textLength="104.6377" x="324.5239" y="32.9951">Listing Specs</text></g><ellipse cx="314.074" cy="57.2969" fill="#222222" rx="10" ry="10" style="stroke:#222222;stroke-width:1;"/><rect fill="#F1F1F1" height="33.9688" rx="12.5" ry="12.5" style="stroke:#181818;stroke-width:0.5;" width="123.0488" x="252.5496" y="87.2969"/><text fill="#000000" font-family="sans-serif" font-size="12" lengthAdjust="spacing" textLength="103.0488" x="262.5496" y="108.4355">List all templates</text><polygon fill="#F1F1F1" points="233.1155,141.2656,395.0325,141.2656,407.0325,153.2656,395.0325,165.2656,233.1155,165.2656,221.1155,153.2656,233.1155,141.2656" style="stroke:#181818;stroke-width:0.5;"/><text fill="#000000" font-family="sans-serif" font-size="11" lengthAdjust="spacing" textLength="161.917" x="233.1155" y="157.0737">Template directory is empty?</text><text fill="#000000" font-family="sans-serif" font-size="11" lengthAdjust="spacing" textLength="19.0083" x="202.1072" y="150.6714">yes</text><text fill="#000000" font-family="sans-serif" font-size="11" lengthAdjust="spacing" textLength="13.7017" x="407.0325" y="150.6714">no</text><rect fill="#F1F1F1" height="47.9375" rx="12.5" ry="12.5" style="stroke:#181818;stroke-width:0.5;" width="196.9414" x="11" y="175.2656"/><text fill="#000000" font-family="sans-serif" font-size="12" lengthAdjust="spacing" textLength="144.9609" x="21" y="196.4043">Report to user that they</text><text fill="#000000" font-family="sans-serif" font-size="12" lengthAdjust="spacing" textLength="176.9414" x="21" y="210.373">don't have any templates yet</text><polygon fill="#F1F1F1" points="421.1677,175.2656,616.1868,175.2656,628.1868,187.2656,616.1868,199.2656,421.1677,199.2656,409.1677,187.2656,421.1677,175.2656" style="stroke:#181818;stroke-width:0.5;"/><text fill="#000000" font-family="sans-serif" font-size="11" lengthAdjust="spacing" textLength="195.019" x="421.1677" y="191.0737">List with template variable defaults</text><text fill="#000000" font-family="sans-serif" font-size="11" lengthAdjust="spacing" textLength="19.0083" x="390.1594" y="184.6714">yes</text><text fill="#000000" font-family="sans-serif" font-size="11" lengthAdjust="spacing" textLength="13.7017" x="628.1868" y="184.6714">no</text><rect fill="#F1F1F1" height="33.9688" rx="12.5" ry="12.5" style="stroke:#181818;stroke-width:0.5;" width="142.8945" x="319.0439" y="264.9761"/><text fill="#000000" font-family="sans-serif" font-size="12" lengthAdjust="spacing" textLength="122.8945" x="329.0439" y="286.1147">Unmarshal template</text><rect fill="#F1F1F1" height="33.9688" rx="12.5" ry="12.5" style="stroke:#181818;stroke-width:0.5;" width="135.4355" x="322.7734" y="331.9448"/><text fill="#000000" font-family="sans-serif" font-size="12" lengthAdjust="spacing" textLength="115.4355" x="332.7734" y="353.0835">Get default options</text><rect fill="#F1F1F1" height="33.9688" rx="12.5" ry="12.5" style="stroke:#181818;stroke-width:0.5;" width="257.0996" x="261.9414" y="385.9136"/><text fill="#000000" font-family="sans-serif" font-size="12" lengthAdjust="spacing" textLength="237.0996" x="271.9414" y="407.0522">Print template name and its arguments</text><polygon fill="#F1F1F1" points="344.375,209.2656,436.6074,209.2656,448.6074,221.2656,436.6074,233.2656,344.375,233.2656,332.375,221.2656,344.375,209.2656" style="stroke:#181818;stroke-width:0.5;"/><text fill="#000000" font-family="sans-serif" font-size="11" lengthAdjust="spacing" textLength="19.0083" x="394.4912" y="243.4761">yes</text><text fill="#000000" font-family="sans-serif" font-size="11" lengthAdjust="spacing" textLength="92.2324" x="344.375" y="225.0737">More templates?</text><text fill="#000000" font-family="sans-serif" font-size="11" lengthAdjust="spacing" textLength="13.7017" x="318.6733" y="218.6714">no</text><rect fill="#F1F1F1" height="33.9688" rx="12.5" ry="12.5" style="stroke:#181818;stroke-width:0.5;" width="143.6445" x="575.041" y="264.9761"/><text fill="#000000" font-family="sans-serif" font-size="12" lengthAdjust="spacing" textLength="123.6445" x="585.041" y="286.1147">Print template name</text><polygon fill="#F1F1F1" points="600.7471,209.2656,692.9795,209.2656,704.9795,221.2656,692.9795,233.2656,600.7471,233.2656,588.7471,221.2656,600.7471,209.2656" style="stroke:#181818;stroke-width:0.5;"/><text fill="#000000" font-family="sans-serif" font-size="11" lengthAdjust="spacing" textLength="19.0083" x="650.8633" y="243.4761">yes</text><text fill="#000000" font-family="sans-serif" font-size="11" lengthAdjust="spacing" textLength="92.2324" x="600.7471" y="225.0737">More templates?</text><text fill="#000000" font-family="sans-serif" font-size="11" lengthAdjust="spacing" textLength="13.7017" x="575.0454" y="218.6714">no</text><polygon fill="#F1F1F1" points="518.6772,447.8823,530.6772,459.8823,518.6772,471.8823,506.6772,459.8823,518.6772,447.8823" style="stroke:#181818;stroke-width:0.5;"/><polygon fill="#F1F1F1" points="314.074,477.8823,326.074,489.8823,314.074,501.8823,302.074,489.8823,314.074,477.8823" style="stroke:#181818;stroke-width:0.5;"/><ellipse cx="314.074" cy="532.8823" fill="none" rx="11" ry="11" style="stroke:#222222;stroke-width:1;"/><ellipse cx="314.074" cy="532.8823" fill="#222222" rx="6" ry="6" style="stroke:#222222;stroke-width:1;"/><line style="stroke:#181818;stroke-width:1;" x1="314.074" x2="314.074" y1="67.2969" y2="87.2969"/><polygon fill="#181818" points="310.074,77.2969,314.074,87.2969,318.074,77.2969,314.074,81.2969" style="stroke:#181818;stroke-width:1;"/><line style="stroke:#181818;stroke-width:1;" x1="390.4912" x2="390.4912" y1="298.9448" y2="331.9448"/><polygon fill="#181818" points="386.4912,321.9448,390.4912,331.9448,394.4912,321.9448,390.4912,325.9448" style="stroke:#181818;stroke-width:1;"/><line style="stroke:#181818;stroke-width:1;" x1="390.4912" x2="390.4912" y1="365.9136" y2="385.9136"/><polygon fill="#181818" points="386.4912,375.9136,390.4912,385.9136,394.4912,375.9136,390.4912,379.9136" style="stroke:#181818;stroke-width:1;"/><line style="stroke:#181818;stroke-width:1;" x1="390.4912" x2="390.4912" y1="233.2656" y2="264.9761"/><polygon fill="#181818" points="386.4912,254.9761,390.4912,264.9761,394.4912,254.9761,390.4912,258.9761" style="stroke:#181818;stroke-width:1;"/><line style="stroke:#181818;stroke-width:1;" x1="390.4912" x2="390.4912" y1="419.8823" y2="429.8823"/><line style="stroke:#181818;stroke-width:1;" x1="390.4912" x2="531.041" y1="429.8823" y2="429.8823"/><polygon fill="#181818" points="527.041,340.5269,531.041,330.5269,535.041,340.5269,531.041,336.5269" style="stroke:#181818;stroke-width:1;"/><line style="stroke:#181818;stroke-width:1;" x1="531.041" x2="531.041" y1="221.2656" y2="429.8823"/><line style="stroke:#181818;stroke-width:1;" x1="531.041" x2="448.6074" y1="221.2656" y2="221.2656"/><polygon fill="#181818" points="458.6074,217.2656,448.6074,221.2656,458.6074,225.2656,454.6074,221.2656" style="stroke:#181818;stroke-width:1;"/><line style="stroke:#181818;stroke-width:1;" x1="332.375" x2="249.9414" y1="221.2656" y2="221.2656"/><polygon fill="#181818" points="245.9414,335.5269,249.9414,345.5269,253.9414,335.5269,249.9414,339.5269" style="stroke:#181818;stroke-width:1;"/><line style="stroke:#181818;stroke-width:1;" x1="249.9414" x2="249.9414" y1="221.2656" y2="459.8823"/><line style="stroke:#181818;stroke-width:1;" x1="249.9414" x2="506.6772" y1="459.8823" y2="459.8823"/><polygon fill="#181818" points="496.6772,455.8823,506.6772,459.8823,496.6772,463.8823,500.6772,459.8823" style="stroke:#181818;stroke-width:1;"/><line style="stroke:#181818;stroke-width:1;" x1="646.8633" x2="646.8633" y1="233.2656" y2="264.9761"/><polygon fill="#181818" points="642.8633,254.9761,646.8633,264.9761,650.8633,254.9761,646.8633,258.9761" style="stroke:#181818;stroke-width:1;"/><line style="stroke:#181818;stroke-width:1;" x1="646.8633" x2="646.8633" y1="298.9448" y2="308.9448"/><line style="stroke:#181818;stroke-width:1;" x1="646.8633" x2="730.6855" y1="308.9448" y2="308.9448"/><polygon fill="#181818" points="726.6855,273.5581,730.6855,263.5581,734.6855,273.5581,730.6855,269.5581" style="stroke:#181818;stroke-width:1;"/><line style="stroke:#181818;stroke-width:1;" x1="730.6855" x2="730.6855" y1="221.2656" y2="308.9448"/><line style="stroke:#181818;stroke-width:1;" x1="730.6855" x2="704.9795" y1="221.2656" y2="221.2656"/><polygon fill="#181818" points="714.9795,217.2656,704.9795,221.2656,714.9795,225.2656,710.9795,221.2656" style="stroke:#181818;stroke-width:1;"/><line style="stroke:#181818;stroke-width:1;" x1="588.7471" x2="563.041" y1="221.2656" y2="221.2656"/><polygon fill="#181818" points="559.041,335.5269,563.041,345.5269,567.041,335.5269,563.041,339.5269" style="stroke:#181818;stroke-width:1;"/><line style="stroke:#181818;stroke-width:1;" x1="563.041" x2="563.041" y1="221.2656" y2="459.8823"/><line style="stroke:#181818;stroke-width:1;" x1="563.041" x2="530.6772" y1="459.8823" y2="459.8823"/><polygon fill="#181818" points="540.6772,455.8823,530.6772,459.8823,540.6772,463.8823,536.6772,459.8823" style="stroke:#181818;stroke-width:1;"/><line style="stroke:#181818;stroke-width:1;" x1="409.1677" x2="390.4912" y1="187.2656" y2="187.2656"/><line style="stroke:#181818;stroke-width:1;" x1="390.4912" x2="390.4912" y1="187.2656" y2="209.2656"/><polygon fill="#181818" points="386.4912,199.2656,390.4912,209.2656,394.4912,199.2656,390.4912,203.2656" style="stroke:#181818;stroke-width:1;"/><line style="stroke:#181818;stroke-width:1;" x1="628.1868" x2="646.8633" y1="187.2656" y2="187.2656"/><line style="stroke:#181818;stroke-width:1;" x1="646.8633" x2="646.8633" y1="187.2656" y2="209.2656"/><polygon fill="#181818" points="642.8633,199.2656,646.8633,209.2656,650.8633,199.2656,646.8633,203.2656" style="stroke:#181818;stroke-width:1;"/><line style="stroke:#181818;stroke-width:1;" x1="221.1155" x2="109.4707" y1="153.2656" y2="153.2656"/><line style="stroke:#181818;stroke-width:1;" x1="109.4707" x2="109.4707" y1="153.2656" y2="175.2656"/><polygon fill="#181818" points="105.4707,165.2656,109.4707,175.2656,113.4707,165.2656,109.4707,169.2656" style="stroke:#181818;stroke-width:1;"/><line style="stroke:#181818;stroke-width:1;" x1="407.0325" x2="518.6772" y1="153.2656" y2="153.2656"/><line style="stroke:#181818;stroke-width:1;" x1="518.6772" x2="518.6772" y1="153.2656" y2="175.2656"/><polygon fill="#181818" points="514.6772,165.2656,518.6772,175.2656,522.6772,165.2656,518.6772,169.2656" style="stroke:#181818;stroke-width:1;"/><line style="stroke:#181818;stroke-width:1;" x1="109.4707" x2="109.4707" y1="223.2031" y2="489.8823"/><line style="stroke:#181818;stroke-width:1;" x1="109.4707" x2="302.074" y1="489.8823" y2="489.8823"/><polygon fill="#181818" points="292.074,485.8823,302.074,489.8823,292.074,493.8823,296.074,489.8823" style="stroke:#181818;stroke-width:1;"/><line style="stroke:#181818;stroke-width:1;" x1="518.6772" x2="518.6772" y1="471.8823" y2="489.8823"/><line style="stroke:#181818;stroke-width:1;" x1="518.6772" x2="326.074" y1="489.8823" y2="489.8823"/><polygon fill="#181818" points="336.074,485.8823,326.074,489.8823,336.074,493.8823,332.074,489.8823" style="stroke:#181818;stroke-width:1;"/><line style="stroke:#181818;stroke-width:1;" x1="314.074" x2="314.074" y1="121.2656" y2="141.2656"/><polygon fill="#181818" points="310.074,131.2656,314.074,141.2656,318.074,131.2656,314.074,135.2656" style="stroke:#181818;stroke-width:1;"/><line style="stroke:#181818;stroke-width:1;" x1="314.074" x2="314.074" y1="501.8823" y2="521.8823"/><polygon fill="#181818" points="310.074,511.8823,314.074,521.8823,318.074,511.8823,314.074,515.8823" style="stroke:#181818;stroke-width:1;"/><!--SRC=[dP6zRiCm38HtFGMtEg-G31sxj43HdmTW8pec84k6U4wWjwza977J5XtAHS3nXFiEX288FQf1uu5U9zcRSmRES6xRPE8G239EWI6sSyvfJztRMI2lMVP8kP0QLH7bVaCO959Nn3QEwcnVP4ePX4IpIQvhHlEKPUjJl0CDV1JYMDOeAe8Q9y64kfWsRd6ty0Nhf1YkPZfoLlweJRpqF0VO3uWsfq6hfNjAMTQSoblHRuqBzNiSETl0Q_tThU51SCcZD45Jj6-EvwmHAsNaiPNqf33YV9X7YVZoHw8_8xQ-Yt9j_xyElm3y6HUzzlN4bzUGfay0]--></g></svg>