<svg xmlns="http://www.w3.org/2000/svg" xmlns:xlink="http://www.w3.org/1999/xlink" contentStyleType="text/css" data-diagram-type="ACTIVITY" height="561px" preserveAspectRatio="none" style="width:556px;height:561px;background:#FFFFFF;" version="1.1" viewBox="0 0 556 561" width="556px" zoomAndPan="magnify"><title>Spec Generation</title><defs/><g><g class="title" data-source-line="1"><text fill="#000000" font-family="sans-serif" font-size="14" font-weight="bold" lengthAdjust="spacing" textLength="130.6484" x="211.6641" y="32.9951">Spec Generation</text></g><ellipse cx="287.1709" cy="57.2969" fill="#222222" rx="10" ry="10" style="stroke:#222222;stroke-width:1;"/><rect fill="#F1F1F1" height="47.9375" rx="12.5" ry="12.5" style="stroke:#181818;stroke-width:0.5;" width="152.2578" x="211.042" y="87.2969"/><text fill="#000000" font-family="sans-serif" font-size="12" lengthAdjust="spacing" textLength="116.9824" x="221.042" y="108.4355">Generate spec with</text><text fill="#000000" font-family="sans-serif" font-size="12" lengthAdjust="spacing" textLength="132.2578" x="221.042" y="122.4043">user-specified options</text><polygon fill="#F1F1F1" points="245.0132,155.2344,329.3286,155.2344,341.3286,168.0391,329.3286,180.8438,245.0132,180.8438,233.0132,168.0391,245.0132,155.2344" style="stroke:#181818;stroke-width:0.5;"/><text fill="#000000" font-family="sans-serif" font-size="11" lengthAdjust="spacing" textLength="75.9097" x="245.0132" y="165.4448">Spec exists in</text><text fill="#000000" font-family="sans-serif" font-size="11" lengthAdjust="spacing" textLength="84.3154" x="245.0132" y="178.2495">spec directory?</text><text fill="#000000" font-family="sans-serif" font-size="11" lengthAdjust="spacing" textLength="19.0083" x="214.0049" y="165.4448">yes</text><text fill="#000000" font-family="sans-serif" font-size="11" lengthAdjust="spacing" textLength="13.7017" x="341.3286" y="165.4448">no</text><rect fill="#F1F1F1" height="33.9688" rx="12.5" ry="12.5" style="stroke:#181818;stroke-width:0.5;" width="138.6641" x="82.3447" y="190.8438"/><text fill="#000000" font-family="sans-serif" font-size="12" lengthAdjust="spacing" textLength="118.6641" x="92.3447" y="211.9824">Unmarshal spec file</text><rect fill="#F1F1F1" height="33.9688" rx="12.5" ry="12.5" style="stroke:#181818;stroke-width:0.5;" width="231.3535" x="36" y="300.5229"/><text fill="#000000" font-family="sans-serif" font-size="12" lengthAdjust="spacing" textLength="211.3535" x="46" y="321.6616">Create parent directories if needed</text><rect fill="#F1F1F1" height="47.9375" rx="12.5" ry="12.5" style="stroke:#181818;stroke-width:0.5;" width="180.5703" x="61.3916" y="354.4917"/><text fill="#000000" font-family="sans-serif" font-size="12" lengthAdjust="spacing" textLength="160.5703" x="71.3916" y="375.6304">Apply options and defaults</text><text fill="#000000" font-family="sans-serif" font-size="12" lengthAdjust="spacing" textLength="126.041" x="71.3916" y="389.5991">to template contents</text><rect fill="#F1F1F1" height="33.9688" rx="12.5" ry="12.5" style="stroke:#181818;stroke-width:0.5;" width="230.4219" x="36.4658" y="422.4292"/><text fill="#000000" font-family="sans-serif" font-size="12" lengthAdjust="spacing" textLength="210.4219" x="46.4658" y="443.5679">Write templatized contents to path</text><polygon fill="#F1F1F1" points="66.7195,244.8125,236.634,244.8125,248.634,256.8125,236.634,268.8125,66.7195,268.8125,54.7195,256.8125,66.7195,244.8125" style="stroke:#181818;stroke-width:0.5;"/><text fill="#000000" font-family="sans-serif" font-size="11" lengthAdjust="spacing" textLength="22.5747" x="155.6768" y="279.0229">true</text><text fill="#000000" font-family="sans-serif" font-size="11" lengthAdjust="spacing" textLength="169.9146" x="66.7195" y="260.6206">More templates and no errors?</text><text fill="#000000" font-family="sans-serif" font-size="11" lengthAdjust="spacing" textLength="26.168" x="28.5515" y="254.2183">false</text><rect fill="#F1F1F1" height="33.9688" rx="12.5" ry="12.5" style="stroke:#181818;stroke-width:0.5;" width="246.623" x="299.3535" y="190.8438"/><text fill="#000000" font-family="sans-serif" font-size="12" lengthAdjust="spacing" textLength="226.623" x="309.3535" y="211.9824">Report to user that spec doesn't exist</text><polygon fill="#F1F1F1" points="287.1709,484.3979,299.1709,496.3979,287.1709,508.3979,275.1709,496.3979,287.1709,484.3979" style="stroke:#181818;stroke-width:0.5;"/><ellipse cx="287.1709" cy="539.3979" fill="none" rx="11" ry="11" style="stroke:#222222;stroke-width:1;"/><ellipse cx="287.1709" cy="539.3979" fill="#222222" rx="6" ry="6" style="stroke:#222222;stroke-width:1;"/><line style="stroke:#181818;stroke-width:1;" x1="287.1709" x2="287.1709" y1="67.2969" y2="87.2969"/><polygon fill="#181818" points="283.1709,77.2969,287.1709,87.2969,291.1709,77.2969,287.1709,81.2969" style="stroke:#181818;stroke-width:1;"/><line style="stroke:#181818;stroke-width:1;" x1="151.6768" x2="151.6768" y1="334.4917" y2="354.4917"/><polygon fill="#181818" points="147.6768,344.4917,151.6768,354.4917,155.6768,344.4917,151.6768,348.4917" style="stroke:#181818;stroke-width:1;"/><line style="stroke:#181818;stroke-width:1;" x1="151.6768" x2="151.6768" y1="402.4292" y2="422.4292"/><polygon fill="#181818" points="147.6768,412.4292,151.6768,422.4292,155.6768,412.4292,151.6768,416.4292" style="stroke:#181818;stroke-width:1;"/><line style="stroke:#181818;stroke-width:1;" x1="151.6768" x2="151.6768" y1="268.8125" y2="300.5229"/><polygon fill="#181818" points="147.6768,290.5229,151.6768,300.5229,155.6768,290.5229,151.6768,294.5229" style="stroke:#181818;stroke-width:1;"/><line style="stroke:#181818;stroke-width:1;" x1="151.6768" x2="151.6768" y1="456.3979" y2="466.3979"/><line style="stroke:#181818;stroke-width:1;" x1="151.6768" x2="279.3535" y1="466.3979" y2="466.3979"/><polygon fill="#181818" points="275.3535,370.0581,279.3535,360.0581,283.3535,370.0581,279.3535,366.0581" style="stroke:#181818;stroke-width:1;"/><line style="stroke:#181818;stroke-width:1;" x1="279.3535" x2="279.3535" y1="256.8125" y2="466.3979"/><line style="stroke:#181818;stroke-width:1;" x1="279.3535" x2="248.634" y1="256.8125" y2="256.8125"/><polygon fill="#181818" points="258.634,252.8125,248.634,256.8125,258.634,260.8125,254.634,256.8125" style="stroke:#181818;stroke-width:1;"/><line style="stroke:#181818;stroke-width:1;" x1="54.7195" x2="24" y1="256.8125" y2="256.8125"/><polygon fill="#181818" points="20,365.0581,24,375.0581,28,365.0581,24,369.0581" style="stroke:#181818;stroke-width:1;"/><line style="stroke:#181818;stroke-width:1;" x1="24" x2="24" y1="256.8125" y2="496.3979"/><line style="stroke:#181818;stroke-width:1;" x1="24" x2="275.1709" y1="496.3979" y2="496.3979"/><polygon fill="#181818" points="265.1709,492.3979,275.1709,496.3979,265.1709,500.3979,269.1709,496.3979" style="stroke:#181818;stroke-width:1;"/><line style="stroke:#181818;stroke-width:1;" x1="151.6768" x2="151.6768" y1="224.8125" y2="244.8125"/><polygon fill="#181818" points="147.6768,234.8125,151.6768,244.8125,155.6768,234.8125,151.6768,238.8125" style="stroke:#181818;stroke-width:1;"/><line style="stroke:#181818;stroke-width:1;" x1="233.0132" x2="151.6768" y1="168.0391" y2="168.0391"/><line style="stroke:#181818;stroke-width:1;" x1="151.6768" x2="151.6768" y1="168.0391" y2="190.8438"/><polygon fill="#181818" points="147.6768,180.8438,151.6768,190.8438,155.6768,180.8438,151.6768,184.8438" style="stroke:#181818;stroke-width:1;"/><line style="stroke:#181818;stroke-width:1;" x1="341.3286" x2="422.665" y1="168.0391" y2="168.0391"/><line style="stroke:#181818;stroke-width:1;" x1="422.665" x2="422.665" y1="168.0391" y2="190.8438"/><polygon fill="#181818" points="418.665,180.8438,422.665,190.8438,426.665,180.8438,422.665,184.8438" style="stroke:#181818;stroke-width:1;"/><line style="stroke:#181818;stroke-width:1;" x1="422.665" x2="422.665" y1="224.8125" y2="496.3979"/><line style="stroke:#181818;stroke-width:1;" x1="422.665" x2="299.1709" y1="496.3979" y2="496.3979"/><polygon fill="#181818" points="309.1709,492.3979,299.1709,496.3979,309.1709,500.3979,305.1709,496.3979" style="stroke:#181818;stroke-width:1;"/><line style="stroke:#181818;stroke-width:1;" x1="287.1709" x2="287.1709" y1="135.2344" y2="155.2344"/><polygon fill="#181818" points="283.1709,145.2344,287.1709,155.2344,291.1709,145.2344,287.1709,149.2344" style="stroke:#181818;stroke-width:1;"/><line style="stroke:#181818;stroke-width:1;" x1="287.1709" x2="287.1709" y1="508.3979" y2="528.3979"/><polygon fill="#181818" points="283.1709,518.3979,287.1709,528.3979,291.1709,518.3979,287.1709,522.3979" style="stroke:#181818;stroke-width:1;"/><!--SRC=[JP6nJiGm44HxVyLsv0f-uAv0Y8AA1eHeQAppH5d9jxPsDpgEhyTESX4feZYUUJiUEti6VLISwHK2ZSv5GZ2FwY4SjtyWwueh-nHcWpxs9O-CHALsXvr2u9661OGVDZTY-PR5bbXnzgAtfmFv1A7X1Zi4Qi_nKovHROfvdJ1oHaFrhUlKlcbuAmfoN6fkCOoY9992K2rgZST6W-kC5RSWNnGzSOqAyNquDtDBA412saOiykTQy-r-Z8MVCCOvk-qQBti2EXVnnhN_Y2zbtqFoRslbhkhM6dqwBM98saurncmjCzgR1YbR6U-eHRrxUicjg-XhBQd0vC7NPa-XSNZibrJg7m00]--></g></svg>