<svg xmlns="http://www.w3.org/2000/svg" xmlns:xlink="http://www.w3.org/1999/xlink" contentStyleType="text/css" data-diagram-type="ACTIVITY" height="485px" preserveAspectRatio="none" style="width:540px;height:485px;background:#FFFFFF;" version="1.1" viewBox="0 0 540 485" width="540px" zoomAndPan="magnify"><title>Tmpl Overview</title><defs/><g><g class="title" data-source-line="1"><text fill="#000000" font-family="sans-serif" font-size="14" font-weight="bold" lengthAdjust="spacing" textLength="117.6123" x="209.9106" y="32.9951">Tmpl Overview</text></g><ellipse cx="270.2168" cy="57.2969" fill="#222222" rx="10" ry="10" style="stroke:#222222;stroke-width:1;"/><rect fill="#F1F1F1" height="33.9688" rx="12.5" ry="12.5" style="stroke:#181818;stroke-width:0.5;" width="122.1172" x="209.1582" y="87.2969"/><text fill="#000000" font-family="sans-serif" font-size="12" lengthAdjust="spacing" textLength="102.1172" x="219.1582" y="108.4355">Parse arguments</text><rect fill="#F1F1F1" height="33.9688" rx="12.5" ry="12.5" style="stroke:#181818;stroke-width:0.5;" width="180.2246" x="180.1045" y="141.2656"/><text fill="#000000" font-family="sans-serif" font-size="12" lengthAdjust="spacing" textLength="160.2246" x="190.1045" y="162.4043">Check if user has $EDITOR</text><rect fill="#F1F1F1" height="47.9375" rx="12.5" ry="12.5" style="stroke:#181818;stroke-width:0.5;" width="175.8828" x="182.2754" y="195.2344"/><text fill="#000000" font-family="sans-serif" font-size="12" lengthAdjust="spacing" textLength="155.8828" x="192.2754" y="216.373">Create template directory</text><text fill="#000000" font-family="sans-serif" font-size="12" lengthAdjust="spacing" textLength="72.2344" x="192.2754" y="230.3418">if necessary</text><rect fill="#F1F1F1" height="33.9688" rx="12.5" ry="12.5" style="stroke:#181818;stroke-width:0.5;" width="123.3828" x="208.5254" y="263.1719"/><text fill="#000000" font-family="sans-serif" font-size="12" lengthAdjust="spacing" textLength="103.3828" x="218.5254" y="284.3105">Switch command</text><line style="stroke:#181818;stroke-width:1.5;" x1="72.1816" x2="467.3994" y1="317.1406" y2="317.1406"/><rect fill="#F1F1F1" height="47.9375" rx="12.5" ry="12.5" style="stroke:#181818;stroke-width:0.5;" width="122.3633" x="11" y="358.0239"/><text fill="#000000" font-family="sans-serif" font-size="12" lengthAdjust="spacing" textLength="85.2129" x="21" y="379.1626">List templates</text><text fill="#000000" font-family="sans-serif" font-size="12" lengthAdjust="spacing" textLength="102.3633" x="21" y="393.1313">and their options</text><rect fill="#F1F1F1" height="47.9375" rx="12.5" ry="12.5" style="stroke:#181818;stroke-width:0.5;" width="110.8438" x="143.3633" y="358.0239"/><text fill="#000000" font-family="sans-serif" font-size="12" lengthAdjust="spacing" textLength="83.7363" x="153.3633" y="379.1626">Create a new,</text><text fill="#000000" font-family="sans-serif" font-size="12" lengthAdjust="spacing" textLength="90.8438" x="153.3633" y="393.1313">blank template</text><rect fill="#F1F1F1" height="61.9063" rx="12.5" ry="12.5" style="stroke:#181818;stroke-width:0.5;" width="113.1582" x="282.207" y="351.0396"/><text fill="#000000" font-family="sans-serif" font-size="12" lengthAdjust="spacing" textLength="93.1582" x="292.207" y="372.1782">Edit an existing</text><text fill="#000000" font-family="sans-serif" font-size="12" lengthAdjust="spacing" textLength="68.9238" x="292.207" y="386.147">template in</text><text fill="#000000" font-family="sans-serif" font-size="12" lengthAdjust="spacing" textLength="53.1094" x="292.207" y="400.1157">$EDITOR</text><rect fill="#F1F1F1" height="47.9375" rx="12.5" ry="12.5" style="stroke:#181818;stroke-width:0.5;" width="124.0684" x="405.3652" y="358.0239"/><text fill="#000000" font-family="sans-serif" font-size="12" lengthAdjust="spacing" textLength="104.0684" x="415.3652" y="379.1626">Generate a given</text><text fill="#000000" font-family="sans-serif" font-size="12" lengthAdjust="spacing" textLength="54.1699" x="415.3652" y="393.1313">template</text><line style="stroke:#181818;stroke-width:1.5;" x1="72.1816" x2="467.3994" y1="432.9458" y2="432.9458"/><ellipse cx="270.2168" cy="463.9458" fill="none" rx="11" ry="11" style="stroke:#222222;stroke-width:1;"/><ellipse cx="270.2168" cy="463.9458" fill="#222222" rx="6" ry="6" style="stroke:#222222;stroke-width:1;"/><line style="stroke:#181818;stroke-width:1;" x1="270.2168" x2="270.2168" y1="67.2969" y2="87.2969"/><polygon fill="#181818" points="266.2168,77.2969,270.2168,87.2969,274.2168,77.2969,270.2168,81.2969" style="stroke:#181818;stroke-width:1;"/><line style="stroke:#181818;stroke-width:1;" x1="270.2168" x2="270.2168" y1="121.2656" y2="141.2656"/><polygon fill="#181818" points="266.2168,131.2656,270.2168,141.2656,274.2168,131.2656,270.2168,135.2656" style="stroke:#181818;stroke-width:1;"/><line style="stroke:#181818;stroke-width:1;" x1="270.2168" x2="270.2168" y1="175.2344" y2="195.2344"/><polygon fill="#181818" points="266.2168,185.2344,270.2168,195.2344,274.2168,185.2344,270.2168,189.2344" style="stroke:#181818;stroke-width:1;"/><line style="stroke:#181818;stroke-width:1;" x1="270.2168" x2="270.2168" y1="243.1719" y2="263.1719"/><polygon fill="#181818" points="266.2168,253.1719,270.2168,263.1719,274.2168,253.1719,270.2168,257.1719" style="stroke:#181818;stroke-width:1;"/><line style="stroke:#181818;stroke-width:1;" x1="72.1816" x2="72.1816" y1="318.6406" y2="358.0239"/><polygon fill="#181818" points="68.1816,348.0239,72.1816,358.0239,76.1816,348.0239,72.1816,352.0239" style="stroke:#181818;stroke-width:1;"/><text fill="#000000" font-family="sans-serif" font-size="11" lengthAdjust="spacing" textLength="8.7871" x="76.1816" y="341.9375">ls</text><line style="stroke:#181818;stroke-width:1;" x1="198.7852" x2="198.7852" y1="318.6406" y2="358.0239"/><polygon fill="#181818" points="194.7852,348.0239,198.7852,358.0239,202.7852,348.0239,198.7852,352.0239" style="stroke:#181818;stroke-width:1;"/><text fill="#000000" font-family="sans-serif" font-size="11" lengthAdjust="spacing" textLength="22.7358" x="202.7852" y="341.9375">new</text><line style="stroke:#181818;stroke-width:1;" x1="338.7861" x2="338.7861" y1="318.6406" y2="351.0396"/><polygon fill="#181818" points="334.7861,341.0396,338.7861,351.0396,342.7861,341.0396,338.7861,345.0396" style="stroke:#181818;stroke-width:1;"/><text fill="#000000" font-family="sans-serif" font-size="11" lengthAdjust="spacing" textLength="21.1191" x="342.7861" y="338.4453">edit</text><line style="stroke:#181818;stroke-width:1;" x1="467.3994" x2="467.3994" y1="318.6406" y2="358.0239"/><polygon fill="#181818" points="463.3994,348.0239,467.3994,358.0239,471.3994,348.0239,467.3994,352.0239" style="stroke:#181818;stroke-width:1;"/><text fill="#000000" font-family="sans-serif" font-size="11" lengthAdjust="spacing" textLength="20.7217" x="471.3994" y="341.9375">gen</text><line style="stroke:#181818;stroke-width:1;" x1="72.1816" x2="72.1816" y1="405.9614" y2="432.9458"/><polygon fill="#181818" points="68.1816,422.9458,72.1816,432.9458,76.1816,422.9458,72.1816,426.9458" style="stroke:#181818;stroke-width:1;"/><line style="stroke:#181818;stroke-width:1;" x1="198.7852" x2="198.7852" y1="405.9614" y2="432.9458"/><polygon fill="#181818" points="194.7852,422.9458,198.7852,432.9458,202.7852,422.9458,198.7852,426.9458" style="stroke:#181818;stroke-width:1;"/><line style="stroke:#181818;stroke-width:1;" x1="338.7861" x2="338.7861" y1="412.9458" y2="432.9458"/><polygon fill="#181818" points="334.7861,422.9458,338.7861,432.9458,342.7861,422.9458,338.7861,426.9458" style="stroke:#181818;stroke-width:1;"/><line style="stroke:#181818;stroke-width:1;" x1="467.3994" x2="467.3994" y1="405.9614" y2="432.9458"/><polygon fill="#181818" points="463.3994,422.9458,467.3994,432.9458,471.3994,422.9458,467.3994,426.9458" style="stroke:#181818;stroke-width:1;"/><line style="stroke:#181818;stroke-width:1;" x1="270.2168" x2="270.2168" y1="297.1406" y2="317.1406"/><polygon fill="#181818" points="266.2168,307.1406,270.2168,317.1406,274.2168,307.1406,270.2168,311.1406" style="stroke:#181818;stroke-width:1;"/><line style="stroke:#181818;stroke-width:1;" x1="270.2168" x2="270.2168" y1="434.4458" y2="452.9458"/><polygon fill="#181818" points="266.2168,442.9458,270.2168,452.9458,274.2168,442.9458,270.2168,446.9458" style="stroke:#181818;stroke-width:1;"/><!--SRC=[RP3DJiD038Jl-nG-S8GNQ2KkK24af2Be2vXaIAmcJcIx2Nrx77u24jnslVFDU3OaEj2X7plQJx19C9VYmHQbR1xP7CJMd7fe-3P7Dosg8yahdHn6BJjTx6xl3_kdRRuPE421T5iEjHYg6EnSKg-euCvsNboUPucgfMheUzOw9pvsaebNrzHbpEP1F5OVfv8YYXPYD8mXW_etGjomw0Uec7zsuELwMLuwrkDgz0-4MYAfNRrCbV2MmQ9DMJkaRYtuXswW2Tz1OP-XZKnGAhy2aPj_bSjl7SPt]--></g></svg>